<?xml version="1.0" encoding="utf-8"?>
<!-- Generator: Adobe Illustrator 22.0.0, SVG Export Plug-In . SVG Version: 6.00 Build 0)  -->
<svg version="1.1" xmlns="http://www.w3.org/2000/svg" xmlns:xlink="http://www.w3.org/1999/xlink" x="0px" y="0px"
	 viewBox="0 0 609.3 609.3" style="enable-background:new 0 0 609.3 609.3;" xml:space="preserve">
<style type="text/css">
	.st0{fill:none;stroke:#B5B5B6;stroke-miterlimit:10;}
	.st1{fill:none;stroke:#727171;stroke-width:2;stroke-miterlimit:10;}
	.st2{fill:#9F7D51;}
	.st3{fill:#B40030;}
	.st4{fill:#FFFFFF;}
	.st5{font-family:'AdobeFanHeitiStd-Bold-B5pc-H';}
	.st6{font-size:36px;}
	.st7{fill:none;stroke:#FFFFFF;stroke-width:16;stroke-miterlimit:10;}
	.st8{fill:none;stroke:#FFFFFF;stroke-width:12;stroke-miterlimit:10;}
	.st9{fill:#9C7B50;}
	.st10{fill:none;stroke:#9C7B50;stroke-width:16;stroke-miterlimit:10;}
	.st11{fill:none;stroke:#9C7B50;stroke-width:12;stroke-miterlimit:10;}
	.st12{fill:#C0A17B;}
	.st13{fill:none;stroke:#C0A17B;stroke-width:16;stroke-miterlimit:10;}
	.st14{fill:none;stroke:#C0A17B;stroke-width:12;stroke-miterlimit:10;}
	.st15{fill:#AA1E31;}
	.st16{fill:none;stroke:#AA1E31;stroke-width:16;stroke-miterlimit:10;}
	.st17{fill:none;stroke:#AA1E31;stroke-width:12;stroke-miterlimit:10;}
	.st18{fill:#EBEBEB;}
	.st19{fill:#4C4948;}
	.st20{fill:#B5B5B6;}
</style>
<g id="圖層_1">
	<g>
		<g>
			<line class="st0" x1="0" y1="609.3" x2="609.3" y2="609.3"/>
			<line class="st0" x1="0" y1="585" x2="609.3" y2="585"/>
			<line class="st0" x1="0" y1="560.6" x2="609.3" y2="560.6"/>
			<line class="st0" x1="0" y1="536.2" x2="609.3" y2="536.2"/>
			<line class="st0" x1="0" y1="511.9" x2="609.3" y2="511.9"/>
			<line class="st0" x1="0" y1="487.5" x2="609.3" y2="487.5"/>
			<line class="st0" x1="0" y1="463.1" x2="609.3" y2="463.1"/>
			<line class="st0" x1="0" y1="438.7" x2="609.3" y2="438.7"/>
			<line class="st0" x1="0" y1="414.4" x2="609.3" y2="414.4"/>
			<line class="st0" x1="0" y1="390" x2="609.3" y2="390"/>
			<line class="st0" x1="0" y1="365.6" x2="609.3" y2="365.6"/>
			<line class="st0" x1="0" y1="341.2" x2="609.3" y2="341.2"/>
			<line class="st0" x1="0" y1="316.9" x2="609.3" y2="316.9"/>
			<line class="st0" x1="0" y1="292.5" x2="609.3" y2="292.5"/>
			<line class="st0" x1="0" y1="268.1" x2="609.3" y2="268.1"/>
			<line class="st0" x1="0" y1="243.7" x2="609.3" y2="243.7"/>
			<line class="st0" x1="0" y1="219.4" x2="609.3" y2="219.4"/>
			<line class="st0" x1="0" y1="195" x2="609.3" y2="195"/>
			<line class="st0" x1="0" y1="170.6" x2="609.3" y2="170.6"/>
			<line class="st0" x1="0" y1="146.2" x2="609.3" y2="146.2"/>
			<line class="st0" x1="0" y1="121.9" x2="609.3" y2="121.9"/>
			<line class="st0" x1="0" y1="97.5" x2="609.3" y2="97.5"/>
			<line class="st0" x1="0" y1="73.1" x2="609.3" y2="73.1"/>
			<line class="st0" x1="0" y1="48.7" x2="609.3" y2="48.7"/>
			<line class="st0" x1="0" y1="24.4" x2="609.3" y2="24.4"/>
		</g>
		<line class="st1" x1="0" y1="609.3" x2="609.3" y2="609.3"/>
		<line class="st0" x1="0" y1="585" x2="609.3" y2="585"/>
		<line class="st0" x1="0" y1="560.6" x2="609.3" y2="560.6"/>
		<line class="st0" x1="0" y1="536.2" x2="609.3" y2="536.2"/>
		<line class="st0" x1="0" y1="511.9" x2="609.3" y2="511.9"/>
		<line class="st1" x1="0" y1="487.5" x2="609.3" y2="487.5"/>
		<line class="st0" x1="0" y1="463.1" x2="609.3" y2="463.1"/>
		<line class="st0" x1="0" y1="438.7" x2="609.3" y2="438.7"/>
		<line class="st0" x1="0" y1="414.4" x2="609.3" y2="414.4"/>
		<line class="st0" x1="0" y1="390" x2="609.3" y2="390"/>
		<line class="st1" x1="0" y1="365.6" x2="609.3" y2="365.6"/>
		<line class="st0" x1="0" y1="341.2" x2="609.3" y2="341.2"/>
		<line class="st0" x1="0" y1="316.9" x2="609.3" y2="316.9"/>
		<line class="st0" x1="0" y1="292.5" x2="609.3" y2="292.5"/>
		<line class="st0" x1="0" y1="268.1" x2="609.3" y2="268.1"/>
		<line class="st1" x1="0" y1="243.7" x2="609.3" y2="243.7"/>
		<line class="st0" x1="0" y1="219.4" x2="609.3" y2="219.4"/>
		<line class="st0" x1="0" y1="195" x2="609.3" y2="195"/>
		<line class="st0" x1="0" y1="170.6" x2="609.3" y2="170.6"/>
		<line class="st0" x1="0" y1="146.2" x2="609.3" y2="146.2"/>
		<line class="st1" x1="0" y1="121.9" x2="609.3" y2="121.9"/>
		<line class="st0" x1="0" y1="97.5" x2="609.3" y2="97.5"/>
		<line class="st0" x1="0" y1="73.1" x2="609.3" y2="73.1"/>
		<line class="st0" x1="0" y1="48.7" x2="609.3" y2="48.7"/>
		<line class="st0" x1="0" y1="24.4" x2="609.3" y2="24.4"/>
		<line class="st1" x1="0" y1="0" x2="609.3" y2="0"/>
	</g>
	<g>
		<g>
			<line class="st0" x1="0" y1="0" x2="0" y2="609.3"/>
			<line class="st0" x1="24.4" y1="0" x2="24.4" y2="609.3"/>
			<line class="st0" x1="48.7" y1="0" x2="48.7" y2="609.3"/>
			<line class="st0" x1="73.1" y1="0" x2="73.1" y2="609.3"/>
			<line class="st0" x1="97.5" y1="0" x2="97.5" y2="609.3"/>
			<line class="st0" x1="121.9" y1="0" x2="121.9" y2="609.3"/>
			<line class="st0" x1="146.2" y1="0" x2="146.2" y2="609.3"/>
			<line class="st0" x1="170.6" y1="0" x2="170.6" y2="609.3"/>
			<line class="st0" x1="195" y1="0" x2="195" y2="609.3"/>
			<line class="st0" x1="219.4" y1="0" x2="219.4" y2="609.3"/>
			<line class="st0" x1="243.7" y1="0" x2="243.7" y2="609.3"/>
			<line class="st0" x1="268.1" y1="0" x2="268.1" y2="609.3"/>
			<line class="st0" x1="292.5" y1="0" x2="292.5" y2="609.3"/>
			<line class="st0" x1="316.9" y1="0" x2="316.9" y2="609.3"/>
			<line class="st0" x1="341.2" y1="0" x2="341.2" y2="609.3"/>
			<line class="st0" x1="365.6" y1="0" x2="365.6" y2="609.3"/>
			<line class="st0" x1="390" y1="0" x2="390" y2="609.3"/>
			<line class="st0" x1="414.4" y1="0" x2="414.4" y2="609.3"/>
			<line class="st0" x1="438.7" y1="0" x2="438.7" y2="609.3"/>
			<line class="st0" x1="463.1" y1="0" x2="463.1" y2="609.3"/>
			<line class="st0" x1="487.5" y1="0" x2="487.5" y2="609.3"/>
			<line class="st0" x1="511.9" y1="0" x2="511.9" y2="609.3"/>
			<line class="st0" x1="536.2" y1="0" x2="536.2" y2="609.3"/>
			<line class="st0" x1="560.6" y1="0" x2="560.6" y2="609.3"/>
			<line class="st0" x1="585" y1="0" x2="585" y2="609.3"/>
		</g>
		<line class="st1" x1="0" y1="0" x2="0" y2="609.3"/>
		<line class="st0" x1="24.4" y1="0" x2="24.4" y2="609.3"/>
		<line class="st0" x1="48.7" y1="0" x2="48.7" y2="609.3"/>
		<line class="st0" x1="73.1" y1="0" x2="73.1" y2="609.3"/>
		<line class="st0" x1="97.5" y1="0" x2="97.5" y2="609.3"/>
		<line class="st1" x1="121.9" y1="0" x2="121.9" y2="609.3"/>
		<line class="st0" x1="146.2" y1="0" x2="146.2" y2="609.3"/>
		<line class="st0" x1="170.6" y1="0" x2="170.6" y2="609.3"/>
		<line class="st0" x1="195" y1="0" x2="195" y2="609.3"/>
		<line class="st0" x1="219.4" y1="0" x2="219.4" y2="609.3"/>
		<line class="st1" x1="243.7" y1="0" x2="243.7" y2="609.3"/>
		<line class="st0" x1="268.1" y1="0" x2="268.1" y2="609.3"/>
		<line class="st0" x1="292.5" y1="0" x2="292.5" y2="609.3"/>
		<line class="st0" x1="316.9" y1="0" x2="316.9" y2="609.3"/>
		<line class="st0" x1="341.2" y1="0" x2="341.2" y2="609.3"/>
		<line class="st1" x1="365.6" y1="0" x2="365.6" y2="609.3"/>
		<line class="st0" x1="390" y1="0" x2="390" y2="609.3"/>
		<line class="st0" x1="414.4" y1="0" x2="414.4" y2="609.3"/>
		<line class="st0" x1="438.7" y1="0" x2="438.7" y2="609.3"/>
		<line class="st0" x1="463.1" y1="0" x2="463.1" y2="609.3"/>
		<line class="st1" x1="487.5" y1="0" x2="487.5" y2="609.3"/>
		<line class="st0" x1="511.9" y1="0" x2="511.9" y2="609.3"/>
		<line class="st0" x1="536.2" y1="0" x2="536.2" y2="609.3"/>
		<line class="st0" x1="560.6" y1="0" x2="560.6" y2="609.3"/>
		<line class="st0" x1="585" y1="0" x2="585" y2="609.3"/>
		<line class="st1" x1="609.3" y1="0" x2="609.3" y2="609.3"/>
	</g>
	<g>
		<g>
			<line class="st0" x1="-1721.7" y1="609.3" x2="-1112.3" y2="609.3"/>
			<line class="st0" x1="-1721.7" y1="585" x2="-1112.3" y2="585"/>
			<line class="st0" x1="-1721.7" y1="560.6" x2="-1112.3" y2="560.6"/>
			<line class="st0" x1="-1721.7" y1="536.2" x2="-1112.3" y2="536.2"/>
			<line class="st0" x1="-1721.7" y1="511.9" x2="-1112.3" y2="511.9"/>
			<line class="st0" x1="-1721.7" y1="487.5" x2="-1112.3" y2="487.5"/>
			<line class="st0" x1="-1721.7" y1="463.1" x2="-1112.3" y2="463.1"/>
			<line class="st0" x1="-1721.7" y1="438.7" x2="-1112.3" y2="438.7"/>
			<line class="st0" x1="-1721.7" y1="414.4" x2="-1112.3" y2="414.4"/>
			<line class="st0" x1="-1721.7" y1="390" x2="-1112.3" y2="390"/>
			<line class="st0" x1="-1721.7" y1="365.6" x2="-1112.3" y2="365.6"/>
			<line class="st0" x1="-1721.7" y1="341.2" x2="-1112.3" y2="341.2"/>
			<line class="st0" x1="-1721.7" y1="316.9" x2="-1112.3" y2="316.9"/>
			<line class="st0" x1="-1721.7" y1="292.5" x2="-1112.3" y2="292.5"/>
			<line class="st0" x1="-1721.7" y1="268.1" x2="-1112.3" y2="268.1"/>
			<line class="st0" x1="-1721.7" y1="243.7" x2="-1112.3" y2="243.7"/>
			<line class="st0" x1="-1721.7" y1="219.4" x2="-1112.3" y2="219.4"/>
			<line class="st0" x1="-1721.7" y1="195" x2="-1112.3" y2="195"/>
			<line class="st0" x1="-1721.7" y1="170.6" x2="-1112.3" y2="170.6"/>
			<line class="st0" x1="-1721.7" y1="146.2" x2="-1112.3" y2="146.2"/>
			<line class="st0" x1="-1721.7" y1="121.9" x2="-1112.3" y2="121.9"/>
			<line class="st0" x1="-1721.7" y1="97.5" x2="-1112.3" y2="97.5"/>
			<line class="st0" x1="-1721.7" y1="73.1" x2="-1112.3" y2="73.1"/>
			<line class="st0" x1="-1721.7" y1="48.7" x2="-1112.3" y2="48.7"/>
			<line class="st0" x1="-1721.7" y1="24.4" x2="-1112.3" y2="24.4"/>
		</g>
		<line class="st1" x1="-1721.7" y1="609.3" x2="-1112.3" y2="609.3"/>
		<line class="st0" x1="-1721.7" y1="585" x2="-1112.3" y2="585"/>
		<line class="st0" x1="-1721.7" y1="560.6" x2="-1112.3" y2="560.6"/>
		<line class="st0" x1="-1721.7" y1="536.2" x2="-1112.3" y2="536.2"/>
		<line class="st0" x1="-1721.7" y1="511.9" x2="-1112.3" y2="511.9"/>
		<line class="st1" x1="-1721.7" y1="487.5" x2="-1112.3" y2="487.5"/>
		<line class="st0" x1="-1721.7" y1="463.1" x2="-1112.3" y2="463.1"/>
		<line class="st0" x1="-1721.7" y1="438.7" x2="-1112.3" y2="438.7"/>
		<line class="st0" x1="-1721.7" y1="414.4" x2="-1112.3" y2="414.4"/>
		<line class="st0" x1="-1721.7" y1="390" x2="-1112.3" y2="390"/>
		<line class="st1" x1="-1721.7" y1="365.6" x2="-1112.3" y2="365.6"/>
		<line class="st0" x1="-1721.7" y1="341.2" x2="-1112.3" y2="341.2"/>
		<line class="st0" x1="-1721.7" y1="316.9" x2="-1112.3" y2="316.9"/>
		<line class="st0" x1="-1721.7" y1="292.5" x2="-1112.3" y2="292.5"/>
		<line class="st0" x1="-1721.7" y1="268.1" x2="-1112.3" y2="268.1"/>
		<line class="st1" x1="-1721.7" y1="243.7" x2="-1112.3" y2="243.7"/>
		<line class="st0" x1="-1721.7" y1="219.4" x2="-1112.3" y2="219.4"/>
		<line class="st0" x1="-1721.7" y1="195" x2="-1112.3" y2="195"/>
		<line class="st0" x1="-1721.7" y1="170.6" x2="-1112.3" y2="170.6"/>
		<line class="st0" x1="-1721.7" y1="146.2" x2="-1112.3" y2="146.2"/>
		<line class="st1" x1="-1721.7" y1="121.9" x2="-1112.3" y2="121.9"/>
		<line class="st0" x1="-1721.7" y1="97.5" x2="-1112.3" y2="97.5"/>
		<line class="st0" x1="-1721.7" y1="73.1" x2="-1112.3" y2="73.1"/>
		<line class="st0" x1="-1721.7" y1="48.7" x2="-1112.3" y2="48.7"/>
		<line class="st0" x1="-1721.7" y1="24.4" x2="-1112.3" y2="24.4"/>
		<line class="st1" x1="-1721.7" y1="0" x2="-1112.3" y2="0"/>
	</g>
	<g>
		<g>
			<line class="st0" x1="-1721.7" y1="0" x2="-1721.7" y2="609.3"/>
			<line class="st0" x1="-1697.3" y1="0" x2="-1697.3" y2="609.3"/>
			<line class="st0" x1="-1672.9" y1="0" x2="-1672.9" y2="609.3"/>
			<line class="st0" x1="-1648.5" y1="0" x2="-1648.5" y2="609.3"/>
			<line class="st0" x1="-1624.2" y1="0" x2="-1624.2" y2="609.3"/>
			<line class="st0" x1="-1599.8" y1="0" x2="-1599.8" y2="609.3"/>
			<line class="st0" x1="-1575.4" y1="0" x2="-1575.4" y2="609.3"/>
			<line class="st0" x1="-1551" y1="0" x2="-1551" y2="609.3"/>
			<line class="st0" x1="-1526.7" y1="0" x2="-1526.7" y2="609.3"/>
			<line class="st0" x1="-1502.3" y1="0" x2="-1502.3" y2="609.3"/>
			<line class="st0" x1="-1477.9" y1="0" x2="-1477.9" y2="609.3"/>
			<line class="st0" x1="-1453.5" y1="0" x2="-1453.5" y2="609.3"/>
			<line class="st0" x1="-1429.2" y1="0" x2="-1429.2" y2="609.3"/>
			<line class="st0" x1="-1404.8" y1="0" x2="-1404.8" y2="609.3"/>
			<line class="st0" x1="-1380.4" y1="0" x2="-1380.4" y2="609.3"/>
			<line class="st0" x1="-1356" y1="0" x2="-1356" y2="609.3"/>
			<line class="st0" x1="-1331.7" y1="0" x2="-1331.7" y2="609.3"/>
			<line class="st0" x1="-1307.3" y1="0" x2="-1307.3" y2="609.3"/>
			<line class="st0" x1="-1282.9" y1="0" x2="-1282.9" y2="609.3"/>
			<line class="st0" x1="-1258.6" y1="0" x2="-1258.6" y2="609.3"/>
			<line class="st0" x1="-1234.2" y1="0" x2="-1234.2" y2="609.3"/>
			<line class="st0" x1="-1209.8" y1="0" x2="-1209.8" y2="609.3"/>
			<line class="st0" x1="-1185.4" y1="0" x2="-1185.4" y2="609.3"/>
			<line class="st0" x1="-1161.1" y1="0" x2="-1161.1" y2="609.3"/>
			<line class="st0" x1="-1136.7" y1="0" x2="-1136.7" y2="609.3"/>
		</g>
		<line class="st1" x1="-1721.7" y1="0" x2="-1721.7" y2="609.3"/>
		<line class="st0" x1="-1697.3" y1="0" x2="-1697.3" y2="609.3"/>
		<line class="st0" x1="-1672.9" y1="0" x2="-1672.9" y2="609.3"/>
		<line class="st0" x1="-1648.5" y1="0" x2="-1648.5" y2="609.3"/>
		<line class="st0" x1="-1624.2" y1="0" x2="-1624.2" y2="609.3"/>
		<line class="st1" x1="-1599.8" y1="0" x2="-1599.8" y2="609.3"/>
		<line class="st0" x1="-1575.4" y1="0" x2="-1575.4" y2="609.3"/>
		<line class="st0" x1="-1551" y1="0" x2="-1551" y2="609.3"/>
		<line class="st0" x1="-1526.7" y1="0" x2="-1526.7" y2="609.3"/>
		<line class="st0" x1="-1502.3" y1="0" x2="-1502.3" y2="609.3"/>
		<line class="st1" x1="-1477.9" y1="0" x2="-1477.9" y2="609.3"/>
		<line class="st0" x1="-1453.5" y1="0" x2="-1453.5" y2="609.3"/>
		<line class="st0" x1="-1429.2" y1="0" x2="-1429.2" y2="609.3"/>
		<line class="st0" x1="-1404.8" y1="0" x2="-1404.8" y2="609.3"/>
		<line class="st0" x1="-1380.4" y1="0" x2="-1380.4" y2="609.3"/>
		<line class="st1" x1="-1356" y1="0" x2="-1356" y2="609.3"/>
		<line class="st0" x1="-1331.7" y1="0" x2="-1331.7" y2="609.3"/>
		<line class="st0" x1="-1307.3" y1="0" x2="-1307.3" y2="609.3"/>
		<line class="st0" x1="-1282.9" y1="0" x2="-1282.9" y2="609.3"/>
		<line class="st0" x1="-1258.6" y1="0" x2="-1258.6" y2="609.3"/>
		<line class="st1" x1="-1234.2" y1="0" x2="-1234.2" y2="609.3"/>
		<line class="st0" x1="-1209.8" y1="0" x2="-1209.8" y2="609.3"/>
		<line class="st0" x1="-1185.4" y1="0" x2="-1185.4" y2="609.3"/>
		<line class="st0" x1="-1161.1" y1="0" x2="-1161.1" y2="609.3"/>
		<line class="st0" x1="-1136.7" y1="0" x2="-1136.7" y2="609.3"/>
		<line class="st1" x1="-1112.3" y1="0" x2="-1112.3" y2="609.3"/>
	</g>
</g>
<g id="LOGO_x2C_ICON">
	<g>
		<g>
			<g>
				<path class="st2" d="M122.4,1284.9c-1.4-0.8-2.5-1.9-3.3-3.3s-1.2-3.1-1.2-4.9v-7.2c0-1.9,0.4-3.5,1.2-4.9s1.9-2.5,3.3-3.3
					s3-1.2,4.9-1.2c1.9,0,3.5,0.4,4.9,1.2s2.5,1.9,3.3,3.3s1.2,3.1,1.2,4.9v7.2c0,1.9-0.4,3.5-1.2,4.9s-1.9,2.5-3.3,3.3
					s-3,1.2-4.9,1.2C125.4,1286.1,123.8,1285.7,122.4,1284.9z M129.5,1280.7c0.7-0.4,1.2-0.9,1.5-1.6s0.5-1.5,0.5-2.4v-7.5
					c0-0.9-0.2-1.7-0.5-2.4s-0.9-1.2-1.5-1.6s-1.4-0.6-2.3-0.6c-0.9,0-1.6,0.2-2.3,0.6s-1.2,0.9-1.5,1.6s-0.5,1.5-0.5,2.4v7.5
					c0,0.9,0.2,1.7,0.5,2.4s0.9,1.2,1.5,1.6s1.4,0.6,2.3,0.6C128.1,1281.3,128.9,1281.1,129.5,1280.7z"/>
				<path class="st2" d="M147.9,1286.1c0,0-0.6-0.1-1.7-0.4s-2.3-0.6-3.3-1.1s-1.9-1-2.8-1.7l2.2-4c1,0.8,2.1,1.4,3.4,1.9
					s2.6,0.7,4,0.7c1.6,0,2.8-0.3,3.7-0.8s1.3-1.3,1.3-2.3v0c0-0.7-0.2-1.2-0.6-1.6s-0.9-0.7-1.5-0.9s-1.4-0.4-2.4-0.5
					c0,0-0.1,0-0.1,0s-0.1,0-0.1,0l-0.4-0.1c-1.7-0.3-3.1-0.6-4.3-1s-2.1-1.1-2.9-2.1s-1.2-2.5-1.2-4.3v0c0-1.7,0.4-3.1,1.1-4.2
					s1.8-2.1,3.2-2.7s3.1-0.9,5.1-0.9c0.9,0,1.8,0.1,2.8,0.3s1.9,0.5,2.8,0.9s1.8,0.9,2.6,1.4l-2,4.1c-1-0.7-2-1.2-3.1-1.6
					s-2.1-0.6-3.1-0.6c-1.5,0-2.6,0.2-3.4,0.7s-1.2,1.2-1.2,2v0c0,0.7,0.2,1.3,0.6,1.7s0.9,0.7,1.6,0.9s1.5,0.4,2.6,0.6
					c0,0,0.1,0,0.1,0s0.1,0,0.1,0c0.1,0,0.1,0,0.2,0s0.1,0,0.2,0c1.6,0.3,3,0.7,4.1,1.2s2,1.2,2.7,2.2s1.1,2.4,1.1,4.1v0
					c0,1.6-0.4,3-1.1,4.2s-1.9,2-3.3,2.7s-3.2,0.9-5.3,0.9C148.5,1286.1,147.9,1286.1,147.9,1286.1z"/>
				<path class="st2" d="M168.5,1285.8h-5v-25.6h5V1285.8z"/>
				<path class="st2" d="M170.2,1260.3H189v4.6h-18.7V1260.3z M177.2,1262.3h4.8v23.5h-4.8V1262.3z"/>
				<path class="st2" d="M195.7,1285.8h-5v-25.6h5V1285.8z"/>
				<path class="st2" d="M204.9,1284.9c-1.4-0.8-2.5-1.9-3.3-3.3s-1.2-3.1-1.2-4.9v-7.2c0-1.9,0.4-3.5,1.2-4.9s1.9-2.5,3.3-3.3
					s3-1.2,4.9-1.2s3.5,0.4,4.9,1.2s2.5,1.9,3.3,3.3s1.2,3.1,1.2,4.9v7.2c0,1.9-0.4,3.5-1.2,4.9s-1.9,2.5-3.3,3.3s-3,1.2-4.9,1.2
					S206.3,1285.7,204.9,1284.9z M212.1,1280.7c0.7-0.4,1.2-0.9,1.5-1.6s0.5-1.5,0.5-2.4v-7.5c0-0.9-0.2-1.7-0.5-2.4
					s-0.9-1.2-1.5-1.6s-1.4-0.6-2.3-0.6s-1.6,0.2-2.3,0.6s-1.2,0.9-1.5,1.6s-0.5,1.5-0.5,2.4v7.5c0,0.9,0.2,1.7,0.5,2.4
					s0.9,1.2,1.5,1.6s1.4,0.6,2.3,0.6S211.4,1281.1,212.1,1280.7z"/>
				<path class="st2" d="M224.2,1260.3h5.9l9.5,19.6l-0.4,0.5v-20h4.6v25.5h-5.9l-9.5-19.3l0.4-0.5v19.7h-4.6V1260.3z"/>
			</g>
		</g>
		<g>
			<g>
				<path class="st2" d="M187.2,1223.3h3.1l9.8,25.6h-5.2l-6.1-17.5l-6.1,17.5h-5.2L187.2,1223.3z M182.2,1240.1h13.4v4.6h-13.4
					V1240.1z"/>
				<path class="st2" d="M203.2,1223.2h4.8v25.6h-4.8V1223.2z M205.2,1233.9h8.9c0.5,0,0.9-0.1,1.3-0.4s0.7-0.6,0.9-1.1
					s0.3-1,0.3-1.6c0-0.6-0.1-1.1-0.3-1.6s-0.5-0.8-0.9-1.1s-0.8-0.4-1.3-0.4h-8.9v-4.6h9.3c1.4,0,2.6,0.3,3.7,0.9s1.9,1.5,2.5,2.7
					s0.9,2.5,0.9,4s-0.3,2.9-0.9,4s-1.4,2-2.5,2.7s-2.3,0.9-3.7,0.9h-9.3V1233.9z M210.5,1237.7l5.2-0.8l6.9,11.9h-5.8L210.5,1237.7
					z"/>
				<path class="st2" d="M226.7,1223.3h4.8v25.6h-4.8V1223.3z M229.6,1238.8l10.2-15.6h6.1l-15.7,21.8L229.6,1238.8z M233.9,1235.9
					l4.1-2.6l9,15.6h-5.7L233.9,1235.9z"/>
			</g>
		</g>
	</g>
	<path class="st3" d="M235.9,1020.6c-24.8-62.6-95.6-93.2-158.2-68.4c-31.3,12.4-54.6,36.3-67,64.9l0,0
		c-38.9,92-54.2,192.7-42,294.4c4-49.5,35.4-95,84.7-114.5c19.9-7.9,40.5-11.4,60.4-9.9l0,0c17.7,1.3,35.9-1.3,53.5-8.3
		C230,1154,260.7,1083.2,235.9,1020.6z M140.5,1110.8c-25,9.9-53.4-2.3-63.3-27.4c-9.9-25,2.3-53.4,27.4-63.3
		c25-9.9,53.4,2.3,63.3,27.4C177.8,1072.6,165.6,1100.9,140.5,1110.8z"/>
	<g>
		<g id="XMLID_6_">
			<g>
				<path class="st4" d="M449.6,952.2c62.6-24.8,133.4,5.9,158.2,68.4c24.8,62.6-5.8,133.4-68.4,158.2c-17.6,7-35.9,9.6-53.5,8.3
					c-45.2-3.3-86.8-31.7-104.6-76.7c-12.4-31.3-10.9-64.6,1.5-93.3C395,988.5,418.3,964.6,449.6,952.2z M539.8,1047.6
					c-9.9-25-38.2-37.3-63.3-27.4c-25,9.9-37.3,38.2-27.4,63.3c9.9,25,38.2,37.3,63.3,27.4C537.5,1100.9,549.7,1072.6,539.8,1047.6z
					"/>
				<path class="st4" d="M485.8,1187.1L485.8,1187.1c-19.9-1.4-40.5,2.1-60.4,9.9c-49.3,19.5-80.7,65-84.7,114.5
					c-12.2-101.7,3.1-202.4,42-294.4l0,0c-12.4,28.6-13.9,62-1.5,93.3C399,1155.4,440.6,1183.8,485.8,1187.1z"/>
			</g>
		</g>
		<g>
			<g>
				<path class="st4" d="M494.3,1284.9c-1.4-0.8-2.5-1.9-3.3-3.3s-1.2-3.1-1.2-4.9v-7.2c0-1.9,0.4-3.5,1.2-4.9s1.9-2.5,3.3-3.3
					s3-1.2,4.9-1.2s3.5,0.4,4.9,1.2s2.5,1.9,3.3,3.3s1.2,3.1,1.2,4.9v7.2c0,1.9-0.4,3.5-1.2,4.9s-1.9,2.5-3.3,3.3s-3,1.2-4.9,1.2
					S495.7,1285.7,494.3,1284.9z M501.5,1280.7c0.7-0.4,1.2-0.9,1.5-1.6s0.5-1.5,0.5-2.4v-7.5c0-0.9-0.2-1.7-0.5-2.4
					s-0.9-1.2-1.5-1.6s-1.4-0.6-2.3-0.6s-1.6,0.2-2.3,0.6s-1.2,0.9-1.5,1.6s-0.5,1.5-0.5,2.4v7.5c0,0.9,0.2,1.7,0.5,2.4
					s0.9,1.2,1.5,1.6s1.4,0.6,2.3,0.6S500.8,1281.1,501.5,1280.7z"/>
				<path class="st4" d="M519.8,1286.1c0,0-0.6-0.1-1.7-0.4s-2.3-0.6-3.3-1.1s-1.9-1-2.8-1.7l2.2-4c1,0.8,2.1,1.4,3.4,1.9
					s2.6,0.7,4,0.7c1.6,0,2.8-0.3,3.7-0.8s1.3-1.3,1.3-2.3v0c0-0.7-0.2-1.2-0.6-1.6s-0.9-0.7-1.5-0.9s-1.4-0.4-2.4-0.5
					c0,0-0.1,0-0.1,0s-0.1,0-0.1,0l-0.4-0.1c-1.7-0.3-3.1-0.6-4.3-1s-2.1-1.1-2.9-2.1s-1.2-2.5-1.2-4.3v0c0-1.7,0.4-3.1,1.1-4.2
					s1.8-2.1,3.2-2.7s3.1-0.9,5.1-0.9c0.9,0,1.8,0.1,2.8,0.3s1.9,0.5,2.8,0.9s1.8,0.9,2.6,1.4l-2,4.1c-1-0.7-2-1.2-3.1-1.6
					s-2.1-0.6-3.1-0.6c-1.5,0-2.6,0.2-3.4,0.7s-1.2,1.2-1.2,2v0c0,0.7,0.2,1.3,0.6,1.7s0.9,0.7,1.6,0.9s1.5,0.4,2.6,0.6
					c0,0,0.1,0,0.1,0s0.1,0,0.1,0c0.1,0,0.1,0,0.2,0s0.1,0,0.2,0c1.6,0.3,3,0.7,4.1,1.2s2,1.2,2.7,2.2s1.1,2.4,1.1,4.1v0
					c0,1.6-0.4,3-1.1,4.2s-1.9,2-3.3,2.7s-3.2,0.9-5.3,0.9C520.4,1286.1,519.8,1286.1,519.8,1286.1z"/>
				<path class="st4" d="M540.4,1285.8h-5v-25.6h5V1285.8z"/>
				<path class="st4" d="M542.2,1260.3h18.7v4.6h-18.7V1260.3z M549.1,1262.3h4.8v23.5h-4.8V1262.3z"/>
				<path class="st4" d="M567.7,1285.8h-5v-25.6h5V1285.8z"/>
				<path class="st4" d="M576.8,1284.9c-1.4-0.8-2.5-1.9-3.3-3.3s-1.2-3.1-1.2-4.9v-7.2c0-1.9,0.4-3.5,1.2-4.9s1.9-2.5,3.3-3.3
					s3-1.2,4.9-1.2s3.5,0.4,4.9,1.2s2.5,1.9,3.3,3.3s1.2,3.1,1.2,4.9v7.2c0,1.9-0.4,3.5-1.2,4.9s-1.9,2.5-3.3,3.3s-3,1.2-4.9,1.2
					S578.3,1285.7,576.8,1284.9z M584,1280.7c0.7-0.4,1.2-0.9,1.5-1.6s0.5-1.5,0.5-2.4v-7.5c0-0.9-0.2-1.7-0.5-2.4s-0.9-1.2-1.5-1.6
					s-1.4-0.6-2.3-0.6s-1.6,0.2-2.3,0.6s-1.2,0.9-1.5,1.6s-0.5,1.5-0.5,2.4v7.5c0,0.9,0.2,1.7,0.5,2.4s0.9,1.2,1.5,1.6
					s1.4,0.6,2.3,0.6S583.4,1281.1,584,1280.7z"/>
				<path class="st4" d="M596.2,1260.3h5.9l9.5,19.6l-0.4,0.5v-20h4.6v25.5h-5.9l-9.5-19.3l0.4-0.5v19.7h-4.6V1260.3z"/>
			</g>
		</g>
		<g>
			<g>
				<path class="st4" d="M559.2,1223.3h3.1l9.8,25.6h-5.2l-6.1-17.5l-6.1,17.5h-5.2L559.2,1223.3z M554.1,1240.1h13.4v4.6h-13.4
					V1240.1z"/>
				<path class="st4" d="M575.2,1223.2h4.8v25.6h-4.8V1223.2z M577.1,1233.9h8.9c0.5,0,0.9-0.1,1.3-0.4s0.7-0.6,0.9-1.1
					s0.3-1,0.3-1.6c0-0.6-0.1-1.1-0.3-1.6s-0.5-0.8-0.9-1.1s-0.8-0.4-1.3-0.4h-8.9v-4.6h9.3c1.4,0,2.6,0.3,3.7,0.9s1.9,1.5,2.5,2.7
					s0.9,2.5,0.9,4s-0.3,2.9-0.9,4s-1.4,2-2.5,2.7s-2.3,0.9-3.7,0.9h-9.3V1233.9z M582.5,1237.7l5.2-0.8l6.9,11.9h-5.8L582.5,1237.7
					z"/>
				<path class="st4" d="M598.6,1223.3h4.8v25.6h-4.8V1223.3z M601.5,1238.8l10.2-15.6h6.1l-15.7,21.8L601.5,1238.8z M605.8,1235.9
					l4.1-2.6l9,15.6h-5.7L605.8,1235.9z"/>
			</g>
		</g>
	</g>
	<g>
		<g id="XMLID_8_">
			<g>
				<path class="st4" d="M459,1392.2c62.6-24.8,133.4,5.9,158.2,68.4c24.8,62.6-5.8,133.4-68.4,158.2c-17.6,7-35.9,9.6-53.5,8.3
					c-45.2-3.3-86.8-31.7-104.6-76.7c-12.4-31.3-10.9-64.6,1.5-93.3C404.4,1428.5,427.7,1404.6,459,1392.2z M549.2,1487.6
					c-9.9-25-38.2-37.3-63.3-27.4c-25,9.9-37.3,38.2-27.4,63.3c9.9,25,38.2,37.3,63.3,27.4C546.8,1540.9,559.1,1512.6,549.2,1487.6z
					"/>
				<path class="st4" d="M495.2,1627.1L495.2,1627.1c-19.9-1.4-40.5,2.1-60.4,9.9c-49.3,19.5-80.7,65-84.7,114.5
					c-12.2-101.7,3.1-202.4,42-294.4l0,0c-12.4,28.6-13.9,62-1.5,93.3C408.3,1595.4,449.9,1623.8,495.2,1627.1z"/>
			</g>
		</g>
		<g>
			<g>
				<path class="st4" d="M485.9,1736.7c-4.4-2.4-7.8-5.9-10.3-10.3c-2.4-4.5-3.6-9.6-3.6-15.5v-22.7c0-5.9,1.2-11,3.6-15.5
					s5.8-7.9,10.3-10.3c4.4-2.4,9.5-3.7,15.3-3.7s10.9,1.2,15.3,3.7c4.4,2.4,7.8,5.9,10.3,10.3c2.4,4.5,3.6,9.6,3.6,15.5v22.7
					c0,5.9-1.2,11-3.6,15.5c-2.4,4.5-5.8,7.9-10.3,10.3c-4.4,2.4-9.5,3.7-15.3,3.7S490.3,1739.1,485.9,1736.7z M508.4,1723.5
					c2.1-1.2,3.6-2.8,4.8-4.9c1.1-2.1,1.7-4.6,1.7-7.4v-23.5c0-2.8-0.6-5.2-1.7-7.4c-1.1-2.1-2.7-3.8-4.8-4.9
					c-2.1-1.2-4.4-1.7-7.2-1.7c-2.7,0-5.1,0.6-7.2,1.7c-2.1,1.2-3.6,2.8-4.8,4.9c-1.1,2.1-1.7,4.6-1.7,7.4v23.5
					c0,2.8,0.6,5.3,1.7,7.4c1.1,2.1,2.7,3.8,4.8,4.9c2.1,1.2,4.4,1.7,7.2,1.7C504,1725.2,506.3,1724.7,508.4,1723.5z"/>
				<path class="st4" d="M565.9,1740.3c0,0-1.8-0.4-5.5-1.2c-3.7-0.8-7.1-1.9-10.3-3.4c-3.2-1.5-6.1-3.3-8.6-5.4l7-12.4
					c3.1,2.5,6.6,4.5,10.7,5.9c4,1.4,8.2,2.1,12.4,2.1c4.9,0,8.7-0.8,11.5-2.5c2.7-1.7,4.1-4,4.1-7.1v-0.1c0-2.1-0.6-3.8-1.8-5.1
					c-1.2-1.2-2.8-2.2-4.7-2.8c-1.9-0.6-4.4-1.1-7.5-1.6c-0.1,0-0.2-0.1-0.3-0.1c-0.1,0-0.2,0-0.3-0.1l-1.2-0.2
					c-5.4-0.8-9.8-1.9-13.3-3.2c-3.5-1.3-6.5-3.5-9-6.7c-2.5-3.2-3.7-7.7-3.7-13.5v-0.1c0-5.2,1.2-9.6,3.5-13.3
					c2.3-3.7,5.7-6.5,10.1-8.4c4.4-1.9,9.7-2.9,16-2.9c2.9,0,5.8,0.3,8.8,1c3,0.7,5.9,1.6,8.8,2.9c2.9,1.2,5.6,2.8,8.1,4.5
					l-6.4,12.8c-3.1-2.1-6.3-3.8-9.7-5c-3.4-1.2-6.6-1.8-9.7-1.8c-4.6,0-8.2,0.8-10.7,2.3c-2.5,1.5-3.8,3.7-3.8,6.4v0.1
					c0,2.3,0.7,4.1,2,5.5c1.3,1.3,3,2.3,4.9,2.9c1.9,0.6,4.7,1.3,8.2,2c0.1,0,0.3,0.1,0.4,0.1c0.1,0,0.3,0,0.4,0.1
					c0.2,0,0.4,0.1,0.6,0.1c0.2,0.1,0.4,0.1,0.6,0.1c5.1,1,9.3,2.2,12.7,3.6c3.4,1.4,6.2,3.7,8.5,6.8c2.3,3.1,3.4,7.4,3.4,12.9v0.1
					c0,5.1-1.2,9.5-3.6,13.1c-2.4,3.6-5.9,6.4-10.4,8.3c-4.6,1.9-10.1,2.9-16.5,2.9C567.8,1740.3,565.9,1740.3,565.9,1740.3z"/>
				<path class="st4" d="M630.4,1739.5h-15.6v-80h15.6V1739.5z"/>
				<path class="st4" d="M635.9,1659.4h58.7v14.5h-58.7V1659.4z M657.7,1666h15.1v73.5h-15.1V1666z"/>
				<path class="st4" d="M715.7,1739.5h-15.6v-80h15.6V1739.5z"/>
				<path class="st4" d="M744.5,1736.7c-4.4-2.4-7.8-5.9-10.3-10.3c-2.4-4.5-3.6-9.6-3.6-15.5v-22.7c0-5.9,1.2-11,3.6-15.5
					s5.8-7.9,10.3-10.3c4.4-2.4,9.5-3.7,15.3-3.7s10.9,1.2,15.3,3.7c4.4,2.4,7.8,5.9,10.3,10.3c2.4,4.5,3.6,9.6,3.6,15.5v22.7
					c0,5.9-1.2,11-3.6,15.5c-2.4,4.5-5.8,7.9-10.3,10.3c-4.4,2.4-9.5,3.7-15.3,3.7S748.9,1739.1,744.5,1736.7z M767,1723.5
					c2.1-1.2,3.6-2.8,4.8-4.9c1.1-2.1,1.7-4.6,1.7-7.4v-23.5c0-2.8-0.6-5.2-1.7-7.4c-1.1-2.1-2.7-3.8-4.8-4.9
					c-2.1-1.2-4.4-1.7-7.2-1.7c-2.7,0-5.1,0.6-7.2,1.7c-2.1,1.2-3.6,2.8-4.8,4.9c-1.1,2.1-1.7,4.6-1.7,7.4v23.5
					c0,2.8,0.6,5.3,1.7,7.4c1.1,2.1,2.7,3.8,4.8,4.9c2.1,1.2,4.4,1.7,7.2,1.7C762.5,1725.2,764.9,1724.7,767,1723.5z"/>
				<path class="st4" d="M805,1659.4h18.4l29.8,61.3l-1.3,1.4v-62.8h14.4v80h-18.6l-29.7-60.4l1.3-1.4v61.8H805V1659.4z"/>
			</g>
		</g>
		<g>
			<g>
				<path class="st4" d="M689.1,1543.6h9.6l30.6,80h-16.2l-19.2-54.7l-19.2,54.7h-16.2L689.1,1543.6z M673.2,1596.3h42.1v14.5h-42.1
					V1596.3z"/>
				<path class="st4" d="M739.2,1543.5h15.1v80.1h-15.1V1543.5z M745.2,1576.9h27.9c1.5,0,2.9-0.4,4.1-1.2c1.2-0.8,2.1-1.9,2.7-3.3
					c0.6-1.4,1-3.1,1-5c0-1.9-0.3-3.5-1-5c-0.6-1.4-1.6-2.5-2.7-3.3c-1.2-0.8-2.6-1.2-4.1-1.2h-27.9v-14.5h29.1c4.4,0,8.3,1,11.6,3
					c3.3,2,5.9,4.8,7.8,8.4c1.8,3.6,2.8,7.8,2.8,12.6c0,4.8-0.9,9-2.8,12.6c-1.8,3.6-4.4,6.4-7.8,8.4s-7.2,3-11.6,3h-29.1V1576.9z
					 M762.1,1588.9l16.1-2.5l21.6,37.2h-18.3L762.1,1588.9z"/>
				<path class="st4" d="M812.7,1543.6h15.1v80h-15.1V1543.6z M821.8,1592.3l32.1-48.8h19l-49.2,68.4L821.8,1592.3z M835.1,1583.1
					l13-8.2l28.1,48.7h-17.9L835.1,1583.1z"/>
			</g>
		</g>
	</g>
	<g>
		<g id="XMLID_1_">
			<g>
				<path class="st3" d="M831.5,952.2c62.6-24.8,133.4,5.9,158.2,68.4c24.8,62.6-5.8,133.4-68.4,158.2c-17.6,7-35.9,9.6-53.5,8.3
					c-45.2-3.3-86.8-31.7-104.6-76.7c-12.4-31.3-10.9-64.6,1.5-93.3C776.9,988.5,800.2,964.6,831.5,952.2z M921.7,1047.6
					c-9.9-25-38.2-37.3-63.3-27.4c-25,9.9-37.3,38.2-27.4,63.3c9.9,25,38.2,37.3,63.3,27.4C919.3,1100.9,931.6,1072.6,921.7,1047.6z
					"/>
				<path class="st3" d="M867.7,1187.1L867.7,1187.1c-19.9-1.4-40.5,2.1-60.4,9.9c-49.3,19.5-80.7,65-84.7,114.5
					c-12.2-101.7,3.1-202.4,42-294.4l0,0c-12.4,28.6-13.9,62-1.5,93.3C780.8,1155.4,822.4,1183.8,867.7,1187.1z"/>
			</g>
		</g>
		<g>
			<g>
				<path class="st3" d="M876.1,1284.9c-1.4-0.8-2.5-1.9-3.3-3.3s-1.2-3.1-1.2-4.9v-7.2c0-1.9,0.4-3.5,1.2-4.9s1.9-2.5,3.3-3.3
					s3-1.2,4.9-1.2s3.5,0.4,4.9,1.2s2.5,1.9,3.3,3.3s1.2,3.1,1.2,4.9v7.2c0,1.9-0.4,3.5-1.2,4.9s-1.9,2.5-3.3,3.3s-3,1.2-4.9,1.2
					S877.5,1285.7,876.1,1284.9z M883.3,1280.7c0.7-0.4,1.2-0.9,1.5-1.6s0.5-1.5,0.5-2.4v-7.5c0-0.9-0.2-1.7-0.5-2.4
					s-0.9-1.2-1.5-1.6s-1.4-0.6-2.3-0.6s-1.6,0.2-2.3,0.6s-1.2,0.9-1.5,1.6s-0.5,1.5-0.5,2.4v7.5c0,0.9,0.2,1.7,0.5,2.4
					s0.9,1.2,1.5,1.6s1.4,0.6,2.3,0.6S882.6,1281.1,883.3,1280.7z"/>
				<path class="st3" d="M901.7,1286.1c0,0-0.6-0.1-1.7-0.4s-2.3-0.6-3.3-1.1s-1.9-1-2.8-1.7l2.2-4c1,0.8,2.1,1.4,3.4,1.9
					s2.6,0.7,4,0.7c1.6,0,2.8-0.3,3.7-0.8s1.3-1.3,1.3-2.3v0c0-0.7-0.2-1.2-0.6-1.6s-0.9-0.7-1.5-0.9s-1.4-0.4-2.4-0.5
					c0,0-0.1,0-0.1,0s-0.1,0-0.1,0l-0.4-0.1c-1.7-0.3-3.1-0.6-4.3-1s-2.1-1.1-2.9-2.1s-1.2-2.5-1.2-4.3v0c0-1.7,0.4-3.1,1.1-4.2
					s1.8-2.1,3.2-2.7s3.1-0.9,5.1-0.9c0.9,0,1.8,0.1,2.8,0.3s1.9,0.5,2.8,0.9s1.8,0.9,2.6,1.4l-2,4.1c-1-0.7-2-1.2-3.1-1.6
					s-2.1-0.6-3.1-0.6c-1.5,0-2.6,0.2-3.4,0.7s-1.2,1.2-1.2,2v0c0,0.7,0.2,1.3,0.6,1.7s0.9,0.7,1.6,0.9s1.5,0.4,2.6,0.6
					c0,0,0.1,0,0.1,0s0.1,0,0.1,0c0.1,0,0.1,0,0.2,0s0.1,0,0.2,0c1.6,0.3,3,0.7,4.1,1.2s2,1.2,2.7,2.2s1.1,2.4,1.1,4.1v0
					c0,1.6-0.4,3-1.1,4.2s-1.9,2-3.3,2.7s-3.2,0.9-5.3,0.9C902.3,1286.1,901.7,1286.1,901.7,1286.1z"/>
				<path class="st3" d="M922.3,1285.8h-5v-25.6h5V1285.8z"/>
				<path class="st3" d="M924,1260.3h18.7v4.6H924V1260.3z M931,1262.3h4.8v23.5H931V1262.3z"/>
				<path class="st3" d="M949.5,1285.8h-5v-25.6h5V1285.8z"/>
				<path class="st3" d="M958.7,1284.9c-1.4-0.8-2.5-1.9-3.3-3.3s-1.2-3.1-1.2-4.9v-7.2c0-1.9,0.4-3.5,1.2-4.9s1.9-2.5,3.3-3.3
					s3-1.2,4.9-1.2s3.5,0.4,4.9,1.2s2.5,1.9,3.3,3.3s1.2,3.1,1.2,4.9v7.2c0,1.9-0.4,3.5-1.2,4.9s-1.9,2.5-3.3,3.3s-3,1.2-4.9,1.2
					S960.1,1285.7,958.7,1284.9z M965.9,1280.7c0.7-0.4,1.2-0.9,1.5-1.6s0.5-1.5,0.5-2.4v-7.5c0-0.9-0.2-1.7-0.5-2.4
					s-0.9-1.2-1.5-1.6s-1.4-0.6-2.3-0.6s-1.6,0.2-2.3,0.6s-1.2,0.9-1.5,1.6s-0.5,1.5-0.5,2.4v7.5c0,0.9,0.2,1.7,0.5,2.4
					s0.9,1.2,1.5,1.6s1.4,0.6,2.3,0.6S965.2,1281.1,965.9,1280.7z"/>
				<path class="st3" d="M978,1260.3h5.9l9.5,19.6l-0.4,0.5v-20h4.6v25.5h-5.9l-9.5-19.3l0.4-0.5v19.7H978V1260.3z"/>
			</g>
		</g>
		<g>
			<g>
				<path class="st3" d="M941,1223.3h3.1l9.8,25.6h-5.2l-6.1-17.5l-6.1,17.5h-5.2L941,1223.3z M935.9,1240.1h13.4v4.6h-13.4V1240.1z
					"/>
				<path class="st3" d="M957,1223.2h4.8v25.6H957V1223.2z M958.9,1233.9h8.9c0.5,0,0.9-0.1,1.3-0.4s0.7-0.6,0.9-1.1s0.3-1,0.3-1.6
					c0-0.6-0.1-1.1-0.3-1.6s-0.5-0.8-0.9-1.1s-0.8-0.4-1.3-0.4h-8.9v-4.6h9.3c1.4,0,2.6,0.3,3.7,0.9s1.9,1.5,2.5,2.7s0.9,2.5,0.9,4
					s-0.3,2.9-0.9,4s-1.4,2-2.5,2.7s-2.3,0.9-3.7,0.9h-9.3V1233.9z M964.3,1237.7l5.2-0.8l6.9,11.9h-5.8L964.3,1237.7z"/>
				<path class="st3" d="M980.5,1223.3h4.8v25.6h-4.8V1223.3z M983.4,1238.8l10.2-15.6h6.1l-15.7,21.8L983.4,1238.8z M987.6,1235.9
					l4.1-2.6l9,15.6H995L987.6,1235.9z"/>
			</g>
		</g>
	</g>
	<g>
		<g id="XMLID_7_">
			<g>
				<path class="st2" d="M1210.4,952.2c62.6-24.8,133.4,5.9,158.2,68.4c24.8,62.6-5.8,133.4-68.4,158.2c-17.6,7-35.9,9.6-53.5,8.3
					c-45.2-3.3-86.8-31.7-104.6-76.7c-12.4-31.3-10.9-64.6,1.5-93.3C1155.8,988.5,1179.1,964.6,1210.4,952.2z M1300.6,1047.6
					c-9.9-25-38.2-37.3-63.3-27.4c-25,9.9-37.3,38.2-27.4,63.3c9.9,25,38.2,37.3,63.3,27.4
					C1298.3,1100.9,1310.5,1072.6,1300.6,1047.6z"/>
				<path class="st2" d="M1246.6,1187.1L1246.6,1187.1c-19.9-1.4-40.5,2.1-60.4,9.9c-49.3,19.5-80.7,65-84.7,114.5
					c-12.2-101.7,3.1-202.4,42-294.4l0,0c-12.4,28.6-13.9,62-1.5,93.3C1159.8,1155.4,1201.4,1183.8,1246.6,1187.1z"/>
			</g>
		</g>
		<g>
			<g>
				<path class="st2" d="M1255.1,1284.9c-1.4-0.8-2.5-1.9-3.3-3.3s-1.2-3.1-1.2-4.9v-7.2c0-1.9,0.4-3.5,1.2-4.9s1.9-2.5,3.3-3.3
					s3-1.2,4.9-1.2s3.5,0.4,4.9,1.2s2.5,1.9,3.3,3.3s1.2,3.1,1.2,4.9v7.2c0,1.9-0.4,3.5-1.2,4.9s-1.9,2.5-3.3,3.3s-3,1.2-4.9,1.2
					S1256.5,1285.7,1255.1,1284.9z M1262.3,1280.7c0.7-0.4,1.2-0.9,1.5-1.6s0.5-1.5,0.5-2.4v-7.5c0-0.9-0.2-1.7-0.5-2.4
					s-0.9-1.2-1.5-1.6s-1.4-0.6-2.3-0.6s-1.6,0.2-2.3,0.6s-1.2,0.9-1.5,1.6s-0.5,1.5-0.5,2.4v7.5c0,0.9,0.2,1.7,0.5,2.4
					s0.9,1.2,1.5,1.6s1.4,0.6,2.3,0.6S1261.6,1281.1,1262.3,1280.7z"/>
				<path class="st2" d="M1280.6,1286.1c0,0-0.6-0.1-1.7-0.4s-2.3-0.6-3.3-1.1s-1.9-1-2.8-1.7l2.2-4c1,0.8,2.1,1.4,3.4,1.9
					s2.6,0.7,4,0.7c1.6,0,2.8-0.3,3.7-0.8s1.3-1.3,1.3-2.3v0c0-0.7-0.2-1.2-0.6-1.6s-0.9-0.7-1.5-0.9s-1.4-0.4-2.4-0.5
					c0,0-0.1,0-0.1,0s-0.1,0-0.1,0l-0.4-0.1c-1.7-0.3-3.1-0.6-4.3-1s-2.1-1.1-2.9-2.1s-1.2-2.5-1.2-4.3v0c0-1.7,0.4-3.1,1.1-4.2
					s1.8-2.1,3.2-2.7s3.1-0.9,5.1-0.9c0.9,0,1.8,0.1,2.8,0.3s1.9,0.5,2.8,0.9s1.8,0.9,2.6,1.4l-2,4.1c-1-0.7-2-1.2-3.1-1.6
					s-2.1-0.6-3.1-0.6c-1.5,0-2.6,0.2-3.4,0.7s-1.2,1.2-1.2,2v0c0,0.7,0.2,1.3,0.6,1.7s0.9,0.7,1.6,0.9s1.5,0.4,2.6,0.6
					c0,0,0.1,0,0.1,0s0.1,0,0.1,0c0.1,0,0.1,0,0.2,0s0.1,0,0.2,0c1.6,0.3,3,0.7,4.1,1.2s2,1.2,2.7,2.2s1.1,2.4,1.1,4.1v0
					c0,1.6-0.4,3-1.1,4.2s-1.9,2-3.3,2.7s-3.2,0.9-5.3,0.9C1281.2,1286.1,1280.6,1286.1,1280.6,1286.1z"/>
				<path class="st2" d="M1301.2,1285.8h-5v-25.6h5V1285.8z"/>
				<path class="st2" d="M1303,1260.3h18.7v4.6H1303V1260.3z M1309.9,1262.3h4.8v23.5h-4.8V1262.3z"/>
				<path class="st2" d="M1328.5,1285.8h-5v-25.6h5V1285.8z"/>
				<path class="st2" d="M1337.7,1284.9c-1.4-0.8-2.5-1.9-3.3-3.3s-1.2-3.1-1.2-4.9v-7.2c0-1.9,0.4-3.5,1.2-4.9s1.9-2.5,3.3-3.3
					s3-1.2,4.9-1.2s3.5,0.4,4.9,1.2s2.5,1.9,3.3,3.3s1.2,3.1,1.2,4.9v7.2c0,1.9-0.4,3.5-1.2,4.9s-1.9,2.5-3.3,3.3s-3,1.2-4.9,1.2
					S1339.1,1285.7,1337.7,1284.9z M1344.8,1280.7c0.7-0.4,1.2-0.9,1.5-1.6s0.5-1.5,0.5-2.4v-7.5c0-0.9-0.2-1.7-0.5-2.4
					s-0.9-1.2-1.5-1.6s-1.4-0.6-2.3-0.6s-1.6,0.2-2.3,0.6s-1.2,0.9-1.5,1.6s-0.5,1.5-0.5,2.4v7.5c0,0.9,0.2,1.7,0.5,2.4
					s0.9,1.2,1.5,1.6s1.4,0.6,2.3,0.6S1344.2,1281.1,1344.8,1280.7z"/>
				<path class="st2" d="M1357,1260.3h5.9l9.5,19.6l-0.4,0.5v-20h4.6v25.5h-5.9l-9.5-19.3l0.4-0.5v19.7h-4.6V1260.3z"/>
			</g>
		</g>
		<g>
			<g>
				<path class="st2" d="M1320,1223.3h3.1l9.8,25.6h-5.2l-6.1-17.5l-6.1,17.5h-5.2L1320,1223.3z M1314.9,1240.1h13.4v4.6h-13.4
					V1240.1z"/>
				<path class="st2" d="M1336,1223.2h4.8v25.6h-4.8V1223.2z M1337.9,1233.9h8.9c0.5,0,0.9-0.1,1.3-0.4s0.7-0.6,0.9-1.1
					s0.3-1,0.3-1.6c0-0.6-0.1-1.1-0.3-1.6s-0.5-0.8-0.9-1.1s-0.8-0.4-1.3-0.4h-8.9v-4.6h9.3c1.4,0,2.6,0.3,3.7,0.9s1.9,1.5,2.5,2.7
					s0.9,2.5,0.9,4s-0.3,2.9-0.9,4s-1.4,2-2.5,2.7s-2.3,0.9-3.7,0.9h-9.3V1233.9z M1343.3,1237.7l5.2-0.8l6.9,11.9h-5.8
					L1343.3,1237.7z"/>
				<path class="st2" d="M1359.4,1223.3h4.8v25.6h-4.8V1223.3z M1362.3,1238.8l10.2-15.6h6.1l-15.7,21.8L1362.3,1238.8z
					 M1366.6,1235.9l4.1-2.6l9,15.6h-5.7L1366.6,1235.9z"/>
			</g>
		</g>
	</g>
	<g>
		<g>
			<path class="st4" d="M2999,520.4c-13.1-32.5-37.7-59.2-70.1-73.2c-32.2-13.9-69.2-14.9-101.8-1.6c-18,7.3-34.4,18.3-47.6,32.6
				c-13.7,14.9-22.3,31.9-29.7,50.5c-16.6,41.8-28.4,85.5-35,130c-7.6,51.5-8.6,103.6-2.4,155.3c1.5,12.7,18.9,13,20,0
				c5.2-60.5,55.3-109.2,115.7-114.3c8.9-0.7,17.7,0,26.6,0.2c9.3,0.1,18.6-0.8,27.7-2.6c16-3.2,31.7-9.6,45.4-18.5
				c24-15.6,42.1-38.5,52.2-65.2C3011,583.7,3010.5,549.9,2999,520.4c-2-5-6.7-8.5-12.3-7c-4.8,1.3-9,7.2-7,12.3
				c9.7,25,10.9,52,2.5,77.5c-8,24.4-24.7,45.7-46.4,59.4c-13.4,8.4-28.5,14-44.3,16.3c-8.6,1.2-17.2,1.1-25.9,0.6
				c-9.5-0.5-19,0.1-28.4,1.5c-32.2,4.7-62.9,20.2-85.4,43.9c-23.1,24.3-36.7,55.9-39.6,89.2c6.7,0,13.3,0,20,0
				c-10.1-85.1-1.1-171.5,26.6-252.5c6.2-18.2,12.5-37.3,22.8-53.6c8.9-14.1,21-26.1,35.2-34.8c26.9-16.6,59.7-21.3,90-12.6
				c32.7,9.4,60.1,33.7,72.8,65.3c2,5,6.7,8.5,12.3,7C2996.8,531.4,3001,525.4,2999,520.4z"/>
			<path class="st4" d="M2891.4,603.6c-15.6,5.9-32.7,2.8-44.1-9.8c-10.9-11.9-13-30.3-5.2-44.3c7.6-13.8,23.2-22,38.8-20.1
				c16.7,2.1,29.9,14.9,33.4,31.2C2917.8,577.9,2907.8,596.8,2891.4,603.6c-5,2.1-8.5,6.6-7,12.3c1.3,4.7,7.3,9.1,12.3,7
				c22.8-9.4,38.8-30.9,38.1-56.2c-0.6-25-17.3-47.1-41-54.8c-23.6-7.7-49.9,1.3-64.7,20.9c-14.5,19.1-15.6,46.5-2.5,66.7
				c14.9,22.9,44.4,33.1,70.1,23.3c5-1.9,8.5-6.7,7-12.3C2902.3,605.7,2896.4,601.7,2891.4,603.6z"/>
		</g>
	</g>
	<g>
		<g id="XMLID_4_">
			<g>
				<path class="st3" d="M-1649.3-588.5c67.3,0,121.9,54.6,121.9,121.9c0,67.3-54.6,121.9-121.9,121.9c-13.6,0-26.7-2.2-38.8-6.3
					c0,0-0.1,0-0.1,0c-1.2-0.4-2.4-0.9-3.6-1.3c-46.3-17.3-79.3-61.9-79.3-114.2c0-32.6,12.8-62.1,33.6-84c0,0,0.1-0.1,0.1-0.1
					C-1715.3-574-1684-588.5-1649.3-588.5z M-1600.5-466.7c0-26.9-21.8-48.7-48.8-48.7c-26.9,0-48.7,21.8-48.7,48.7
					c0,26.9,21.8,48.8,48.7,48.8C-1622.3-417.9-1600.5-439.7-1600.5-466.7z"/>
				<path class="st3" d="M-1688.2-351.2c-1.2-0.4-2.4-0.8-3.6-1.3C-1690.6-352-1689.4-351.6-1688.2-351.2z"/>
				<path class="st3" d="M-1771.1-466.7c0,52.3,33,96.9,79.3,114.2c-15.6-5.3-32.3-8.1-49.7-8.1c-74.4,0-136.1,54.1-148.1,125
					c17.7-121.4,71.6-229.8,152.1-315.1C-1758.4-528.8-1771.1-499.2-1771.1-466.7z"/>
			</g>
		</g>
		<g>
			<path class="st2" d="M-1650.7-245.4c-1.4-0.8-2.5-1.9-3.3-3.3s-1.2-3.1-1.2-4.9v-7.2c0-1.9,0.4-3.5,1.2-4.9s1.9-2.5,3.3-3.3
				s3-1.2,4.9-1.2s3.5,0.4,4.9,1.2s2.5,1.9,3.3,3.3s1.2,3.1,1.2,4.9v7.2c0,1.9-0.4,3.5-1.2,4.9s-1.9,2.5-3.3,3.3s-3,1.2-4.9,1.2
				S-1649.3-244.7-1650.7-245.4z M-1643.6-249.6c0.7-0.4,1.2-0.9,1.5-1.6s0.5-1.5,0.5-2.4v-7.5c0-0.9-0.2-1.7-0.5-2.4
				s-0.9-1.2-1.5-1.6s-1.4-0.6-2.3-0.6s-1.6,0.2-2.3,0.6s-1.2,0.9-1.5,1.6s-0.5,1.5-0.5,2.4v7.5c0,0.9,0.2,1.7,0.5,2.4
				s0.9,1.2,1.5,1.6s1.4,0.6,2.3,0.6S-1644.2-249.3-1643.6-249.6z"/>
			<path class="st2" d="M-1625.9-244.3c0,0-0.6-0.1-1.7-0.4s-2.3-0.6-3.3-1.1s-1.9-1-2.8-1.7l2.2-4c1,0.8,2.1,1.4,3.4,1.9
				s2.6,0.7,4,0.7c1.6,0,2.8-0.3,3.7-0.8s1.3-1.3,1.3-2.3v0c0-0.7-0.2-1.2-0.6-1.6s-0.9-0.7-1.5-0.9s-1.4-0.4-2.4-0.5
				c0,0-0.1,0-0.1,0s-0.1,0-0.1,0l-0.4-0.1c-1.7-0.3-3.1-0.6-4.3-1c-1.1-0.4-2.1-1.1-2.9-2.1s-1.2-2.5-1.2-4.3v0
				c0-1.7,0.4-3.1,1.1-4.2s1.8-2.1,3.2-2.7s3.1-0.9,5.1-0.9c0.9,0,1.8,0.1,2.8,0.3s1.9,0.5,2.8,0.9s1.8,0.9,2.6,1.4l-2,4.1
				c-1-0.7-2-1.2-3.1-1.6s-2.1-0.6-3.1-0.6c-1.5,0-2.6,0.2-3.4,0.7s-1.2,1.2-1.2,2v0c0,0.7,0.2,1.3,0.6,1.7s0.9,0.7,1.6,0.9
				s1.5,0.4,2.6,0.6c0,0,0.1,0,0.1,0s0.1,0,0.1,0c0.1,0,0.1,0,0.2,0s0.1,0,0.2,0c1.6,0.3,3,0.7,4.1,1.2s2,1.2,2.7,2.2
				c0.7,1,1.1,2.4,1.1,4.1v0c0,1.6-0.4,3-1.1,4.2s-1.9,2-3.3,2.7s-3.2,0.9-5.3,0.9C-1625.3-244.3-1625.9-244.3-1625.9-244.3z"/>
			<path class="st2" d="M-1605.7-244.5h-5v-25.6h5V-244.5z"/>
			<path class="st2" d="M-1602.5-270.1h18.7v4.6h-18.7V-270.1z M-1595.5-268h4.8v23.5h-4.8V-268z"/>
			<path class="st2" d="M-1576.3-244.5h-5v-25.6h5V-244.5z"/>
			<path class="st2" d="M-1567.1-245.4c-1.4-0.8-2.5-1.9-3.3-3.3s-1.2-3.1-1.2-4.9v-7.2c0-1.9,0.4-3.5,1.2-4.9s1.9-2.5,3.3-3.3
				s3-1.2,4.9-1.2s3.5,0.4,4.9,1.2s2.5,1.9,3.3,3.3s1.2,3.1,1.2,4.9v7.2c0,1.9-0.4,3.5-1.2,4.9s-1.9,2.5-3.3,3.3s-3,1.2-4.9,1.2
				S-1565.7-244.7-1567.1-245.4z M-1559.9-249.6c0.7-0.4,1.2-0.9,1.5-1.6s0.5-1.5,0.5-2.4v-7.5c0-0.9-0.2-1.7-0.5-2.4
				s-0.9-1.2-1.5-1.6s-1.4-0.6-2.3-0.6s-1.6,0.2-2.3,0.6s-1.2,0.9-1.5,1.6s-0.5,1.5-0.5,2.4v7.5c0,0.9,0.2,1.7,0.5,2.4
				s0.9,1.2,1.5,1.6s1.4,0.6,2.3,0.6S-1560.6-249.3-1559.9-249.6z"/>
			<path class="st2" d="M-1548.1-270.1h5.9l9.5,19.6l-0.4,0.5v-20h4.6v25.5h-5.9l-9.5-19.3l0.4-0.5v19.7h-4.6V-270.1z"/>
		</g>
		<g>
			<path class="st2" d="M-1585.5-307.1h3.1l9.8,25.6h-5.2l-6.1-17.5l-6.1,17.5h-5.2L-1585.5-307.1z M-1590.6-290.3h13.4v4.6h-13.4
				V-290.3z"/>
			<path class="st2" d="M-1569.5-307.1h4.8v25.6h-4.8V-307.1z M-1567.6-296.4h8.9c0.5,0,0.9-0.1,1.3-0.4s0.7-0.6,0.9-1.1
				s0.3-1,0.3-1.6c0-0.6-0.1-1.1-0.3-1.6s-0.5-0.8-0.9-1.1s-0.8-0.4-1.3-0.4h-8.9v-4.6h9.3c1.4,0,2.6,0.3,3.7,0.9s1.9,1.5,2.5,2.7
				s0.9,2.5,0.9,4s-0.3,2.9-0.9,4s-1.4,2-2.5,2.7s-2.3,0.9-3.7,0.9h-9.3V-296.4z M-1562.2-292.6l5.2-0.8l6.9,11.9h-5.8
				L-1562.2-292.6z"/>
			<path class="st2" d="M-1546-307.1h4.8v25.6h-4.8V-307.1z M-1543.1-291.5l10.2-15.6h6.1l-15.7,21.8L-1543.1-291.5z M-1538.9-294.5
				l4.1-2.6l9,15.6h-5.7L-1538.9-294.5z"/>
		</g>
	</g>
	<g>
		<g id="XMLID_5_">
			<g>
				<path class="st4" d="M-1155.8-588.5c67.3,0,121.9,54.6,121.9,121.9c0,67.3-54.6,121.9-121.9,121.9c-13.6,0-26.6-2.2-38.8-6.3
					c0,0-0.1,0-0.1,0c-1.2-0.4-2.4-0.9-3.6-1.3c-46.3-17.3-79.3-61.9-79.3-114.2c0-32.6,12.8-62.1,33.6-84c0,0,0.1-0.1,0.1-0.1
					C-1221.8-574-1190.5-588.5-1155.8-588.5z M-1107-466.7c0-26.9-21.8-48.7-48.8-48.7c-26.9,0-48.7,21.8-48.7,48.7
					c0,26.9,21.8,48.8,48.7,48.8C-1128.9-417.9-1107-439.7-1107-466.7z"/>
				<path class="st4" d="M-1194.7-351.2c-1.2-0.4-2.4-0.8-3.6-1.3C-1197.2-352-1195.9-351.6-1194.7-351.2z"/>
				<path class="st4" d="M-1277.7-466.7c0,52.3,33,96.9,79.3,114.2c-15.6-5.3-32.3-8.1-49.7-8.1c-74.4,0-136.1,54.1-148.1,125
					c17.7-121.4,71.6-229.8,152.1-315.1C-1264.9-528.8-1277.7-499.2-1277.7-466.7z"/>
			</g>
		</g>
		<g>
			<path class="st4" d="M-1157.2-245.4c-1.4-0.8-2.5-1.9-3.3-3.3s-1.2-3.1-1.2-4.9v-7.2c0-1.9,0.4-3.5,1.2-4.9s1.9-2.5,3.3-3.3
				s3-1.2,4.9-1.2s3.5,0.4,4.9,1.2s2.5,1.9,3.3,3.3s1.2,3.1,1.2,4.9v7.2c0,1.9-0.4,3.5-1.2,4.9s-1.9,2.5-3.3,3.3s-3,1.2-4.9,1.2
				S-1155.8-244.7-1157.2-245.4z M-1150.1-249.6c0.7-0.4,1.2-0.9,1.5-1.6s0.5-1.5,0.5-2.4v-7.5c0-0.9-0.2-1.7-0.5-2.4
				s-0.9-1.2-1.5-1.6s-1.4-0.6-2.3-0.6s-1.6,0.2-2.3,0.6s-1.2,0.9-1.5,1.6s-0.5,1.5-0.5,2.4v7.5c0,0.9,0.2,1.7,0.5,2.4
				s0.9,1.2,1.5,1.6s1.4,0.6,2.3,0.6S-1150.7-249.3-1150.1-249.6z"/>
			<path class="st4" d="M-1132.4-244.3c0,0-0.6-0.1-1.7-0.4s-2.3-0.6-3.3-1.1s-1.9-1-2.8-1.7l2.2-4c1,0.8,2.1,1.4,3.4,1.9
				s2.6,0.7,4,0.7c1.6,0,2.8-0.3,3.7-0.8s1.3-1.3,1.3-2.3v0c0-0.7-0.2-1.2-0.6-1.6s-0.9-0.7-1.5-0.9s-1.4-0.4-2.4-0.5
				c0,0-0.1,0-0.1,0s-0.1,0-0.1,0l-0.4-0.1c-1.7-0.3-3.1-0.6-4.3-1c-1.1-0.4-2.1-1.1-2.9-2.1s-1.2-2.5-1.2-4.3v0
				c0-1.7,0.4-3.1,1.1-4.2s1.8-2.1,3.2-2.7s3.1-0.9,5.1-0.9c0.9,0,1.8,0.1,2.8,0.3s1.9,0.5,2.8,0.9s1.8,0.9,2.6,1.4l-2,4.1
				c-1-0.7-2-1.2-3.1-1.6s-2.1-0.6-3.1-0.6c-1.5,0-2.6,0.2-3.4,0.7s-1.2,1.2-1.2,2v0c0,0.7,0.2,1.3,0.6,1.7s0.9,0.7,1.6,0.9
				s1.5,0.4,2.6,0.6c0,0,0.1,0,0.1,0s0.1,0,0.1,0c0.1,0,0.1,0,0.2,0s0.1,0,0.2,0c1.6,0.3,3,0.7,4.1,1.2s2,1.2,2.7,2.2
				c0.7,1,1.1,2.4,1.1,4.1v0c0,1.6-0.4,3-1.1,4.2s-1.9,2-3.3,2.7s-3.2,0.9-5.3,0.9C-1131.8-244.3-1132.4-244.3-1132.4-244.3z"/>
			<path class="st4" d="M-1112.2-244.5h-5v-25.6h5V-244.5z"/>
			<path class="st4" d="M-1109-270.1h18.7v4.6h-18.7V-270.1z M-1102-268h4.8v23.5h-4.8V-268z"/>
			<path class="st4" d="M-1082.8-244.5h-5v-25.6h5V-244.5z"/>
			<path class="st4" d="M-1073.6-245.4c-1.4-0.8-2.5-1.9-3.3-3.3s-1.2-3.1-1.2-4.9v-7.2c0-1.9,0.4-3.5,1.2-4.9s1.9-2.5,3.3-3.3
				s3-1.2,4.9-1.2s3.5,0.4,4.9,1.2s2.5,1.9,3.3,3.3s1.2,3.1,1.2,4.9v7.2c0,1.9-0.4,3.5-1.2,4.9s-1.9,2.5-3.3,3.3s-3,1.2-4.9,1.2
				S-1072.2-244.7-1073.6-245.4z M-1066.4-249.6c0.7-0.4,1.2-0.9,1.5-1.6s0.5-1.5,0.5-2.4v-7.5c0-0.9-0.2-1.7-0.5-2.4
				s-0.9-1.2-1.5-1.6s-1.4-0.6-2.3-0.6s-1.6,0.2-2.3,0.6s-1.2,0.9-1.5,1.6s-0.5,1.5-0.5,2.4v7.5c0,0.9,0.2,1.7,0.5,2.4
				s0.9,1.2,1.5,1.6s1.4,0.6,2.3,0.6S-1067.1-249.3-1066.4-249.6z"/>
			<path class="st4" d="M-1054.7-270.1h5.9l9.5,19.6l-0.4,0.5v-20h4.6v25.5h-5.9l-9.5-19.3l0.4-0.5v19.7h-4.6V-270.1z"/>
		</g>
		<g>
			<path class="st4" d="M-1092-307.1h3.1l9.8,25.6h-5.2l-6.1-17.5l-6.1,17.5h-5.2L-1092-307.1z M-1097.1-290.3h13.4v4.6h-13.4
				V-290.3z"/>
			<path class="st4" d="M-1076-307.1h4.8v25.6h-4.8V-307.1z M-1074.1-296.4h8.9c0.5,0,0.9-0.1,1.3-0.4s0.7-0.6,0.9-1.1
				s0.3-1,0.3-1.6c0-0.6-0.1-1.1-0.3-1.6s-0.5-0.8-0.9-1.1s-0.8-0.4-1.3-0.4h-8.9v-4.6h9.3c1.4,0,2.6,0.3,3.7,0.9s1.9,1.5,2.5,2.7
				s0.9,2.5,0.9,4s-0.3,2.9-0.9,4s-1.4,2-2.5,2.7s-2.3,0.9-3.7,0.9h-9.3V-296.4z M-1068.7-292.6l5.2-0.8l6.9,11.9h-5.8
				L-1068.7-292.6z"/>
			<path class="st4" d="M-1052.5-307.1h4.8v25.6h-4.8V-307.1z M-1049.6-291.5l10.2-15.6h6.1l-15.7,21.8L-1049.6-291.5z
				 M-1045.4-294.5l4.1-2.6l9,15.6h-5.7L-1045.4-294.5z"/>
		</g>
	</g>
	<g>
		<g id="XMLID_2_">
			<g>
				<path class="st3" d="M-2515.1-582.7c67.3,0,121.9,54.6,121.9,121.9c0,67.3-54.6,121.9-121.9,121.9c-13.6,0-26.6-2.2-38.9-6.3
					c0,0-0.1,0-0.1,0c-1.2-0.5-2.4-0.9-3.6-1.3c-46.3-17.3-79.3-61.9-79.3-114.2c0-32.6,12.8-62.1,33.6-84c0,0,0.1-0.1,0.1-0.1
					C-2581.1-568.2-2549.8-582.7-2515.1-582.7z M-2466.3-460.8c0-26.9-21.8-48.7-48.8-48.7c-26.9,0-48.7,21.8-48.7,48.7
					c0,26.9,21.8,48.8,48.7,48.8C-2488.1-412.1-2466.3-433.9-2466.3-460.8z"/>
				<path class="st3" d="M-2554-345.3c-1.2-0.4-2.4-0.8-3.6-1.3C-2556.4-346.2-2555.2-345.8-2554-345.3z"/>
				<path class="st3" d="M-2636.9-460.8c0,52.3,33,96.9,79.3,114.2c-15.6-5.3-32.3-8.1-49.7-8.1c-74.4,0-136.1,54-148.1,125
					c17.7-121.4,71.6-229.8,152.1-315.1C-2624.2-523-2636.9-493.4-2636.9-460.8z"/>
			</g>
		</g>
		<g>
			<path class="st2" d="M-2705.6-239.6c-1.4-0.8-2.5-1.9-3.3-3.3s-1.2-3.1-1.2-4.9v-7.2c0-1.9,0.4-3.5,1.2-4.9s1.9-2.5,3.3-3.3
				s3-1.2,4.9-1.2s3.5,0.4,4.9,1.2s2.5,1.9,3.3,3.3s1.2,3.1,1.2,4.9v7.2c0,1.9-0.4,3.5-1.2,4.9s-1.9,2.5-3.3,3.3s-3,1.2-4.9,1.2
				S-2704.2-238.8-2705.6-239.6z M-2698.4-243.8c0.7-0.4,1.2-0.9,1.5-1.6s0.5-1.5,0.5-2.4v-7.5c0-0.9-0.2-1.7-0.5-2.4
				s-0.9-1.2-1.5-1.6s-1.4-0.6-2.3-0.6s-1.6,0.2-2.3,0.6s-1.2,0.9-1.5,1.6s-0.5,1.5-0.5,2.4v7.5c0,0.9,0.2,1.7,0.5,2.4
				s0.9,1.2,1.5,1.6s1.4,0.6,2.3,0.6S-2699.1-243.4-2698.4-243.8z"/>
			<path class="st2" d="M-2680.8-238.4c0,0-0.6-0.1-1.7-0.4s-2.3-0.6-3.3-1.1s-1.9-1-2.8-1.7l2.2-4c1,0.8,2.1,1.4,3.4,1.9
				s2.6,0.7,4,0.7c1.6,0,2.8-0.3,3.7-0.8s1.3-1.3,1.3-2.3v0c0-0.7-0.2-1.2-0.6-1.6s-0.9-0.7-1.5-0.9s-1.4-0.4-2.4-0.5
				c0,0-0.1,0-0.1,0s-0.1,0-0.1,0l-0.4-0.1c-1.7-0.3-3.1-0.6-4.3-1s-2.1-1.1-2.9-2.1s-1.2-2.5-1.2-4.3v0c0-1.7,0.4-3.1,1.1-4.2
				s1.8-2.1,3.2-2.7s3.1-0.9,5.1-0.9c0.9,0,1.8,0.1,2.8,0.3s1.9,0.5,2.8,0.9s1.8,0.9,2.6,1.4l-2,4.1c-1-0.7-2-1.2-3.1-1.6
				s-2.1-0.6-3.1-0.6c-1.5,0-2.6,0.2-3.4,0.7s-1.2,1.2-1.2,2v0c0,0.7,0.2,1.3,0.6,1.7s0.9,0.7,1.6,0.9s1.5,0.4,2.6,0.6
				c0,0,0.1,0,0.1,0s0.1,0,0.1,0c0.1,0,0.1,0,0.2,0s0.1,0,0.2,0c1.6,0.3,3,0.7,4.1,1.2s2,1.2,2.7,2.2s1.1,2.4,1.1,4.1v0
				c0,1.6-0.4,3-1.1,4.2s-1.9,2-3.3,2.7s-3.2,0.9-5.3,0.9C-2680.2-238.4-2680.8-238.4-2680.8-238.4z"/>
			<path class="st2" d="M-2660.5-238.7h-5v-25.6h5V-238.7z"/>
			<path class="st2" d="M-2657.4-264.2h18.7v4.6h-18.7V-264.2z M-2650.4-262.1h4.8v23.5h-4.8V-262.1z"/>
			<path class="st2" d="M-2631.2-238.7h-5v-25.6h5V-238.7z"/>
			<path class="st2" d="M-2622-239.6c-1.4-0.8-2.5-1.9-3.3-3.3s-1.2-3.1-1.2-4.9v-7.2c0-1.9,0.4-3.5,1.2-4.9s1.9-2.5,3.3-3.3
				s3-1.2,4.9-1.2s3.5,0.4,4.9,1.2s2.5,1.9,3.3,3.3s1.2,3.1,1.2,4.9v7.2c0,1.9-0.4,3.5-1.2,4.9s-1.9,2.5-3.3,3.3s-3,1.2-4.9,1.2
				S-2620.6-238.8-2622-239.6z M-2614.8-243.8c0.7-0.4,1.2-0.9,1.5-1.6s0.5-1.5,0.5-2.4v-7.5c0-0.9-0.2-1.7-0.5-2.4
				s-0.9-1.2-1.5-1.6s-1.4-0.6-2.3-0.6s-1.6,0.2-2.3,0.6s-1.2,0.9-1.5,1.6s-0.5,1.5-0.5,2.4v7.5c0,0.9,0.2,1.7,0.5,2.4
				s0.9,1.2,1.5,1.6s1.4,0.6,2.3,0.6S-2615.5-243.4-2614.8-243.8z"/>
			<path class="st2" d="M-2603-264.2h5.9l9.5,19.6l-0.4,0.5v-20h4.6v25.5h-5.9l-9.5-19.3l0.4-0.5v19.7h-4.6V-264.2z"/>
		</g>
		<g>
			<path class="st2" d="M-2700.2-301.2h3.1l9.8,25.6h-5.2l-6.1-17.5l-6.1,17.5h-5.2L-2700.2-301.2z M-2705.3-284.4h13.4v4.6h-13.4
				V-284.4z"/>
			<path class="st2" d="M-2684.2-301.3h4.8v25.6h-4.8V-301.3z M-2682.3-290.6h8.9c0.5,0,0.9-0.1,1.3-0.4s0.7-0.6,0.9-1.1
				s0.3-1,0.3-1.6c0-0.6-0.1-1.1-0.3-1.6s-0.5-0.8-0.9-1.1s-0.8-0.4-1.3-0.4h-8.9v-4.6h9.3c1.4,0,2.6,0.3,3.7,0.9s1.9,1.5,2.5,2.7
				s0.9,2.5,0.9,4s-0.3,2.9-0.9,4s-1.4,2-2.5,2.7s-2.3,0.9-3.7,0.9h-9.3V-290.6z M-2676.9-286.7l5.2-0.8l6.9,11.9h-5.8
				L-2676.9-286.7z"/>
			<path class="st2" d="M-2660.7-301.2h4.8v25.6h-4.8V-301.2z M-2657.8-285.7l10.2-15.6h6.1l-15.7,21.8L-2657.8-285.7z
				 M-2653.6-288.6l4.1-2.6l9,15.6h-5.7L-2653.6-288.6z"/>
		</g>
	</g>
	<g>
		<g id="XMLID_3_">
			<g>
				<path class="st4" d="M-2119-588.5c67.3,0,121.9,54.6,121.9,121.9c0,67.3-54.6,121.9-121.9,121.9c-13.6,0-26.6-2.2-38.8-6.3
					c0,0-0.1,0-0.1,0c-1.2-0.4-2.4-0.9-3.6-1.3c-46.3-17.3-79.3-61.9-79.3-114.2c0-32.6,12.8-62.1,33.6-84c0,0,0.1-0.1,0.1-0.1
					C-2185-574-2153.7-588.5-2119-588.5z M-2070.2-466.7c0-26.9-21.8-48.7-48.8-48.7c-26.9,0-48.7,21.8-48.7,48.7
					c0,26.9,21.8,48.8,48.7,48.8C-2092.1-417.9-2070.2-439.7-2070.2-466.7z"/>
				<path class="st4" d="M-2157.9-351.2c-1.2-0.4-2.4-0.8-3.6-1.3C-2160.4-352-2159.1-351.6-2157.9-351.2z"/>
				<path class="st4" d="M-2240.9-466.7c0,52.3,33,96.9,79.3,114.2c-15.6-5.3-32.3-8.1-49.7-8.1c-74.4,0-136.1,54.1-148.1,125
					c17.7-121.4,71.6-229.8,152.1-315.1C-2228.1-528.8-2240.9-499.2-2240.9-466.7z"/>
			</g>
		</g>
		<g>
			<path class="st4" d="M-2309.5-245.4c-1.4-0.8-2.5-1.9-3.3-3.3s-1.2-3.1-1.2-4.9v-7.2c0-1.9,0.4-3.5,1.2-4.9s1.9-2.5,3.3-3.3
				s3-1.2,4.9-1.2s3.5,0.4,4.9,1.2s2.5,1.9,3.3,3.3s1.2,3.1,1.2,4.9v7.2c0,1.9-0.4,3.5-1.2,4.9s-1.9,2.5-3.3,3.3s-3,1.2-4.9,1.2
				S-2308.1-244.7-2309.5-245.4z M-2302.3-249.6c0.7-0.4,1.2-0.9,1.5-1.6s0.5-1.5,0.5-2.4v-7.5c0-0.9-0.2-1.7-0.5-2.4
				s-0.9-1.2-1.5-1.6s-1.4-0.6-2.3-0.6s-1.6,0.2-2.3,0.6s-1.2,0.9-1.5,1.6s-0.5,1.5-0.5,2.4v7.5c0,0.9,0.2,1.7,0.5,2.4
				s0.9,1.2,1.5,1.6s1.4,0.6,2.3,0.6S-2303-249.3-2302.3-249.6z"/>
			<path class="st4" d="M-2284.7-244.3c0,0-0.6-0.1-1.7-0.4s-2.3-0.6-3.3-1.1s-1.9-1-2.8-1.7l2.2-4c1,0.8,2.1,1.4,3.4,1.9
				s2.6,0.7,4,0.7c1.6,0,2.8-0.3,3.7-0.8s1.3-1.3,1.3-2.3v0c0-0.7-0.2-1.2-0.6-1.6s-0.9-0.7-1.5-0.9s-1.4-0.4-2.4-0.5
				c0,0-0.1,0-0.1,0s-0.1,0-0.1,0l-0.4-0.1c-1.7-0.3-3.1-0.6-4.3-1c-1.1-0.4-2.1-1.1-2.9-2.1s-1.2-2.5-1.2-4.3v0
				c0-1.7,0.4-3.1,1.1-4.2s1.8-2.1,3.2-2.7s3.1-0.9,5.1-0.9c0.9,0,1.8,0.1,2.8,0.3s1.9,0.5,2.8,0.9s1.8,0.9,2.6,1.4l-2,4.1
				c-1-0.7-2-1.2-3.1-1.6s-2.1-0.6-3.1-0.6c-1.5,0-2.6,0.2-3.4,0.7s-1.2,1.2-1.2,2v0c0,0.7,0.2,1.3,0.6,1.7s0.9,0.7,1.6,0.9
				s1.5,0.4,2.6,0.6c0,0,0.1,0,0.1,0s0.1,0,0.1,0c0.1,0,0.1,0,0.2,0s0.1,0,0.2,0c1.6,0.3,3,0.7,4.1,1.2s2,1.2,2.7,2.2
				c0.7,1,1.1,2.4,1.1,4.1v0c0,1.6-0.4,3-1.1,4.2s-1.9,2-3.3,2.7s-3.2,0.9-5.3,0.9C-2284.1-244.3-2284.7-244.3-2284.7-244.3z"/>
			<path class="st4" d="M-2264.4-244.5h-5v-25.6h5V-244.5z"/>
			<path class="st4" d="M-2261.3-270.1h18.7v4.6h-18.7V-270.1z M-2254.3-268h4.8v23.5h-4.8V-268z"/>
			<path class="st4" d="M-2235.1-244.5h-5v-25.6h5V-244.5z"/>
			<path class="st4" d="M-2225.9-245.4c-1.4-0.8-2.5-1.9-3.3-3.3s-1.2-3.1-1.2-4.9v-7.2c0-1.9,0.4-3.5,1.2-4.9s1.9-2.5,3.3-3.3
				s3-1.2,4.9-1.2s3.5,0.4,4.9,1.2s2.5,1.9,3.3,3.3s1.2,3.1,1.2,4.9v7.2c0,1.9-0.4,3.5-1.2,4.9s-1.9,2.5-3.3,3.3s-3,1.2-4.9,1.2
				S-2224.5-244.7-2225.9-245.4z M-2218.7-249.6c0.7-0.4,1.2-0.9,1.5-1.6s0.5-1.5,0.5-2.4v-7.5c0-0.9-0.2-1.7-0.5-2.4
				s-0.9-1.2-1.5-1.6s-1.4-0.6-2.3-0.6s-1.6,0.2-2.3,0.6s-1.2,0.9-1.5,1.6s-0.5,1.5-0.5,2.4v7.5c0,0.9,0.2,1.7,0.5,2.4
				s0.9,1.2,1.5,1.6s1.4,0.6,2.3,0.6S-2219.4-249.3-2218.7-249.6z"/>
			<path class="st4" d="M-2206.9-270.1h5.9l9.5,19.6l-0.4,0.5v-20h4.6v25.5h-5.9l-9.5-19.3l0.4-0.5v19.7h-4.6V-270.1z"/>
		</g>
		<g>
			<path class="st4" d="M-2304.1-307.1h3.1l9.8,25.6h-5.2l-6.1-17.5l-6.1,17.5h-5.2L-2304.1-307.1z M-2309.2-290.3h13.4v4.6h-13.4
				V-290.3z"/>
			<path class="st4" d="M-2288.1-307.1h4.8v25.6h-4.8V-307.1z M-2286.2-296.4h8.9c0.5,0,0.9-0.1,1.3-0.4s0.7-0.6,0.9-1.1
				s0.3-1,0.3-1.6c0-0.6-0.1-1.1-0.3-1.6s-0.5-0.8-0.9-1.1s-0.8-0.4-1.3-0.4h-8.9v-4.6h9.3c1.4,0,2.6,0.3,3.7,0.9s1.9,1.5,2.5,2.7
				s0.9,2.5,0.9,4s-0.3,2.9-0.9,4s-1.4,2-2.5,2.7s-2.3,0.9-3.7,0.9h-9.3V-296.4z M-2280.8-292.6l5.2-0.8l6.9,11.9h-5.8
				L-2280.8-292.6z"/>
			<path class="st4" d="M-2264.7-307.1h4.8v25.6h-4.8V-307.1z M-2261.8-291.5l10.2-15.6h6.1l-15.7,21.8L-2261.8-291.5z
				 M-2257.5-294.5l4.1-2.6l9,15.6h-5.7L-2257.5-294.5z"/>
		</g>
	</g>
	<g id="XMLID_110_">
		<g>
			<path class="st3" d="M231.2,131.2c62.6-24.8,133.4,5.9,158.2,68.4c24.8,62.6-5.8,133.4-68.4,158.2c-17.6,7-35.9,9.6-53.5,8.3
				c-45.2-3.3-86.8-31.7-104.6-76.7c-12.4-31.3-10.9-64.6,1.5-93.3C176.7,167.5,200,143.6,231.2,131.2z M321.4,226.6
				c-9.9-25-38.2-37.3-63.3-27.4c-25,9.9-37.3,38.2-27.4,63.3c9.9,25,38.2,37.3,63.3,27.4C319.1,279.9,331.4,251.6,321.4,226.6z"/>
			<path class="st3" d="M267.5,366.1l0,0.5c-19.9-1.4-40.5,1.6-60.4,9.5c-49.3,19.5-80.7,65-84.7,114.5
				C110.1,388.9,125.1,288.1,164,196l0.2,0.1c-12.4,28.6-13.9,62-1.5,93.3C180.6,334.4,222.2,362.9,267.5,366.1z"/>
		</g>
		<g>
		</g>
	</g>
	<g>
		<g>
			<path class="st2" d="M275.9,463.9c-1.4-0.8-2.5-1.9-3.3-3.3s-1.2-3.1-1.2-4.9v-7.2c0-1.9,0.4-3.5,1.2-4.9s1.9-2.5,3.3-3.3
				s3-1.2,4.9-1.2s3.5,0.4,4.9,1.2s2.5,1.9,3.3,3.3s1.2,3.1,1.2,4.9v7.2c0,1.9-0.4,3.5-1.2,4.9s-1.9,2.5-3.3,3.3s-3,1.2-4.9,1.2
				S277.3,464.7,275.9,463.9z M283.1,459.7c0.7-0.4,1.2-0.9,1.5-1.6s0.5-1.5,0.5-2.4v-7.5c0-0.9-0.2-1.7-0.5-2.4s-0.9-1.2-1.5-1.6
				s-1.4-0.6-2.3-0.6s-1.6,0.2-2.3,0.6s-1.2,0.9-1.5,1.6s-0.5,1.5-0.5,2.4v7.5c0,0.9,0.2,1.7,0.5,2.4s0.9,1.2,1.5,1.6
				s1.4,0.6,2.3,0.6S282.4,460.1,283.1,459.7z"/>
			<path class="st2" d="M301.4,465.1c0,0-0.6-0.1-1.8-0.4s-2.3-0.6-3.3-1.1s-1.9-1-2.8-1.7l2.2-4c1,0.8,2.1,1.4,3.4,1.9
				s2.6,0.7,4,0.7c1.6,0,2.8-0.3,3.7-0.8s1.3-1.3,1.3-2.3v0c0-0.7-0.2-1.2-0.6-1.6s-0.9-0.7-1.5-0.9s-1.4-0.4-2.4-0.5
				c0,0-0.1,0-0.1,0s-0.1,0-0.1,0l-0.4-0.1c-1.7-0.3-3.1-0.6-4.3-1s-2.1-1.1-2.9-2.1s-1.2-2.5-1.2-4.3v0c0-1.7,0.4-3.1,1.1-4.2
				s1.8-2.1,3.2-2.7s3.1-0.9,5.1-0.9c0.9,0,1.8,0.1,2.8,0.3s1.9,0.5,2.8,0.9s1.8,0.9,2.6,1.4l-2,4.1c-1-0.7-2-1.2-3.1-1.6
				s-2.1-0.6-3.1-0.6c-1.5,0-2.6,0.2-3.4,0.7s-1.2,1.2-1.2,2v0c0,0.7,0.2,1.3,0.6,1.7s0.9,0.7,1.6,0.9s1.5,0.4,2.6,0.6
				c0,0,0.1,0,0.1,0s0.1,0,0.1,0c0.1,0,0.1,0,0.2,0s0.1,0,0.2,0c1.6,0.3,3,0.7,4.1,1.2s2,1.2,2.7,2.2s1.1,2.4,1.1,4.1v0
				c0,1.6-0.4,3-1.1,4.2s-1.9,2-3.3,2.7s-3.2,0.9-5.3,0.9C302.1,465.1,301.4,465.1,301.4,465.1z"/>
			<path class="st2" d="M322,464.8h-5v-25.6h5V464.8z"/>
			<path class="st2" d="M323.8,439.3h18.7v4.6h-18.7V439.3z M330.8,441.4h4.8v23.5h-4.8V441.4z"/>
			<path class="st2" d="M349.3,464.8h-5v-25.6h5V464.8z"/>
			<path class="st2" d="M358.5,463.9c-1.4-0.8-2.5-1.9-3.3-3.3s-1.2-3.1-1.2-4.9v-7.2c0-1.9,0.4-3.5,1.2-4.9s1.9-2.5,3.3-3.3
				s3-1.2,4.9-1.2s3.5,0.4,4.9,1.2s2.5,1.9,3.3,3.3s1.2,3.1,1.2,4.9v7.2c0,1.9-0.4,3.5-1.2,4.9s-1.9,2.5-3.3,3.3s-3,1.2-4.9,1.2
				S359.9,464.7,358.5,463.9z M365.7,459.7c0.7-0.4,1.2-0.9,1.5-1.6s0.5-1.5,0.5-2.4v-7.5c0-0.9-0.2-1.7-0.5-2.4s-0.9-1.2-1.5-1.6
				s-1.4-0.6-2.3-0.6s-1.6,0.2-2.3,0.6s-1.2,0.9-1.5,1.6s-0.5,1.5-0.5,2.4v7.5c0,0.9,0.2,1.7,0.5,2.4s0.9,1.2,1.5,1.6
				s1.4,0.6,2.3,0.6S365,460.1,365.7,459.7z"/>
			<path class="st2" d="M377.8,439.3h5.9l9.5,19.6l-0.4,0.5v-20h4.6v25.5h-5.9l-9.5-19.3l0.4-0.5v19.7h-4.6V439.3z"/>
		</g>
	</g>
	<g>
		<g>
			<path class="st2" d="M340.8,402.3h3.1l9.8,25.6h-5.2l-6.1-17.5l-6.1,17.5H331L340.8,402.3z M335.7,419.1h13.4v4.6h-13.4V419.1z"
				/>
			<path class="st2" d="M356.8,402.3h4.8v25.6h-4.8V402.3z M358.7,412.9h8.9c0.5,0,0.9-0.1,1.3-0.4s0.7-0.6,0.9-1.1s0.3-1,0.3-1.6
				c0-0.6-0.1-1.1-0.3-1.6s-0.5-0.8-0.9-1.1s-0.8-0.4-1.3-0.4h-8.9v-4.6h9.3c1.4,0,2.6,0.3,3.7,0.9s1.9,1.5,2.5,2.7s0.9,2.5,0.9,4
				s-0.3,2.9-0.9,4s-1.4,2-2.5,2.7s-2.3,0.9-3.7,0.9h-9.3V412.9z M364.1,416.8l5.2-0.8l6.9,11.9h-5.8L364.1,416.8z"/>
			<path class="st2" d="M380.3,402.3h4.8v25.6h-4.8V402.3z M383.2,417.8l10.2-15.6h6.1l-15.7,21.8L383.2,417.8z M387.4,414.9
				l4.1-2.6l9,15.6h-5.7L387.4,414.9z"/>
		</g>
	</g>
	<g>
		<text transform="matrix(1 0 0 1 26.674 70.0811)" class="st2 st5 st6">成大停車場查詢系統</text>
	</g>
	<g id="XMLID_74_">
		<g>
			<path class="st3" d="M-1356.1,120.8c67.3,0,121.9,54.6,121.9,121.9c0,67.3-54.6,121.9-121.9,121.9c-13.6,0-26.7-2.2-38.9-6.3
				c0,0-0.1,0-0.1,0c-1.2-0.5-2.4-0.9-3.6-1.3c-46.3-17.3-79.3-61.9-79.3-114.2c0-32.6,12.8-62.1,33.6-84c0,0,0.1-0.1,0.1-0.1
				C-1422,135.3-1390.7,120.8-1356.1,120.8z M-1307.3,242.7c0-26.9-21.8-48.7-48.8-48.7c-26.9,0-48.7,21.8-48.7,48.7
				c0,26.9,21.8,48.8,48.7,48.8C-1329.1,291.4-1307.3,269.6-1307.3,242.7z"/>
			<path class="st3" d="M-1395,358.2c-1.2-0.4-2.4-0.8-3.6-1.3C-1397.4,357.3-1396.2,357.7-1395,358.2z"/>
			<path class="st3" d="M-1477.9,242.7c0,52.3,33,96.9,79.3,114.2c-15.6-5.3-32.3-8.1-49.7-8.1c-74.4,0-136.1,54-148.1,125
				c17.7-121.4,71.6-229.8,152.1-315.1C-1465.2,180.5-1477.9,210.1-1477.9,242.7z"/>
		</g>
		<g>
		</g>
	</g>
	<g>
		<g>
			<path class="st2" d="M-1357.2,463.9c-1.4-0.8-2.5-1.9-3.3-3.3s-1.2-3.1-1.2-4.9v-7.2c0-1.9,0.4-3.5,1.2-4.9s1.9-2.5,3.3-3.3
				s3-1.2,4.9-1.2s3.5,0.4,4.9,1.2s2.5,1.9,3.3,3.3s1.2,3.1,1.2,4.9v7.2c0,1.9-0.4,3.5-1.2,4.9s-1.9,2.5-3.3,3.3s-3,1.2-4.9,1.2
				S-1355.8,464.7-1357.2,463.9z M-1350,459.7c0.7-0.4,1.2-0.9,1.5-1.6s0.5-1.5,0.5-2.4v-7.5c0-0.9-0.2-1.7-0.5-2.4
				s-0.9-1.2-1.5-1.6s-1.4-0.6-2.3-0.6s-1.6,0.2-2.3,0.6s-1.2,0.9-1.5,1.6s-0.5,1.5-0.5,2.4v7.5c0,0.9,0.2,1.7,0.5,2.4
				s0.9,1.2,1.5,1.6s1.4,0.6,2.3,0.6S-1350.6,460.1-1350,459.7z"/>
			<path class="st2" d="M-1331.6,465.1c0,0-0.6-0.1-1.7-0.4s-2.3-0.6-3.3-1.1s-1.9-1-2.8-1.7l2.2-4c1,0.8,2.1,1.4,3.4,1.9
				s2.6,0.7,4,0.7c1.6,0,2.8-0.3,3.7-0.8s1.3-1.3,1.3-2.3v0c0-0.7-0.2-1.2-0.6-1.6s-0.9-0.7-1.5-0.9s-1.4-0.4-2.4-0.5
				c0,0-0.1,0-0.1,0s-0.1,0-0.1,0l-0.4-0.1c-1.7-0.3-3.1-0.6-4.3-1s-2.1-1.1-2.9-2.1s-1.2-2.5-1.2-4.3v0c0-1.7,0.4-3.1,1.1-4.2
				s1.8-2.1,3.2-2.7s3.1-0.9,5.1-0.9c0.9,0,1.8,0.1,2.8,0.3s1.9,0.5,2.8,0.9s1.8,0.9,2.6,1.4l-2,4.1c-1-0.7-2-1.2-3.1-1.6
				s-2.1-0.6-3.1-0.6c-1.5,0-2.6,0.2-3.4,0.7s-1.2,1.2-1.2,2v0c0,0.7,0.2,1.3,0.6,1.7s0.9,0.7,1.6,0.9s1.5,0.4,2.6,0.6
				c0,0,0.1,0,0.1,0s0.1,0,0.1,0c0.1,0,0.1,0,0.2,0s0.1,0,0.2,0c1.6,0.3,3,0.7,4.1,1.2s2,1.2,2.7,2.2s1.1,2.4,1.1,4.1v0
				c0,1.6-0.4,3-1.1,4.2s-1.9,2-3.3,2.7s-3.2,0.9-5.3,0.9C-1331,465.1-1331.6,465.1-1331.6,465.1z"/>
			<path class="st2" d="M-1311,464.8h-5v-25.6h5V464.8z"/>
			<path class="st2" d="M-1309.3,439.3h18.7v4.6h-18.7V439.3z M-1302.3,441.4h4.8v23.5h-4.8V441.4z"/>
			<path class="st2" d="M-1283.8,464.8h-5v-25.6h5V464.8z"/>
			<path class="st2" d="M-1274.6,463.9c-1.4-0.8-2.5-1.9-3.3-3.3s-1.2-3.1-1.2-4.9v-7.2c0-1.9,0.4-3.5,1.2-4.9s1.9-2.5,3.3-3.3
				s3-1.2,4.9-1.2s3.5,0.4,4.9,1.2s2.5,1.9,3.3,3.3s1.2,3.1,1.2,4.9v7.2c0,1.9-0.4,3.5-1.2,4.9s-1.9,2.5-3.3,3.3s-3,1.2-4.9,1.2
				S-1273.2,464.7-1274.6,463.9z M-1267.4,459.7c0.7-0.4,1.2-0.9,1.5-1.6s0.5-1.5,0.5-2.4v-7.5c0-0.9-0.2-1.7-0.5-2.4
				s-0.9-1.2-1.5-1.6s-1.4-0.6-2.3-0.6s-1.6,0.2-2.3,0.6s-1.2,0.9-1.5,1.6s-0.5,1.5-0.5,2.4v7.5c0,0.9,0.2,1.7,0.5,2.4
				s0.9,1.2,1.5,1.6s1.4,0.6,2.3,0.6S-1268.1,460.1-1267.4,459.7z"/>
			<path class="st2" d="M-1255.3,439.3h5.9l9.5,19.6l-0.4,0.5v-20h4.6v25.5h-5.9l-9.5-19.3l0.4-0.5v19.7h-4.6V439.3z"/>
		</g>
	</g>
	<g>
		<g>
			<path class="st2" d="M-1292.3,402.3h3.1l9.8,25.6h-5.2l-6.1-17.5l-6.1,17.5h-5.2L-1292.3,402.3z M-1297.4,419.1h13.4v4.6h-13.4
				V419.1z"/>
			<path class="st2" d="M-1276.3,402.3h4.8v25.6h-4.8V402.3z M-1274.4,412.9h8.9c0.5,0,0.9-0.1,1.3-0.4s0.7-0.6,0.9-1.1
				s0.3-1,0.3-1.6c0-0.6-0.1-1.1-0.3-1.6s-0.5-0.8-0.9-1.1s-0.8-0.4-1.3-0.4h-8.9v-4.6h9.3c1.4,0,2.6,0.3,3.7,0.9s1.9,1.5,2.5,2.7
				s0.9,2.5,0.9,4s-0.3,2.9-0.9,4s-1.4,2-2.5,2.7s-2.3,0.9-3.7,0.9h-9.3V412.9z M-1269,416.8l5.2-0.8l6.9,11.9h-5.8L-1269,416.8z"/>
			<path class="st2" d="M-1252.8,402.3h4.8v25.6h-4.8V402.3z M-1249.9,417.8l10.2-15.6h6.1l-15.7,21.8L-1249.9,417.8z
				 M-1245.7,414.9l4.1-2.6l9,15.6h-5.7L-1245.7,414.9z"/>
		</g>
	</g>
	<g>
		<text transform="matrix(1 0 0 1 -1694.9821 70.0811)" class="st2 st5 st6">成大停車場查詢系統</text>
	</g>
	<g>
		<g>
			<path class="st4" d="M3524.2,613.8c0,22.3,0,44.5,0,66.8c0,11.6,0,23.3,0,34.9c0,2.7,0.1,5.6-0.3,8.3
				c-1.4,8.6-7.3,16.3-15.3,19.8c-6.2,2.7-13.2,2.1-19.9,2.1c-10.9,0-21.8,0-32.8,0c-29.7,0-59.3,0-89,0c-11,0-22,0-33,0
				c-6.2,0-12.9,0.6-18.9-1.2c-11.9-3.7-18-14.8-18.1-26.7c0-7.8,0-15.6,0-23.5c0-49.5-0.2-98.9,0-148.4c0-13.2,8.3-25,21.9-27.2
				c7.1-1.2,15.2-0.3,22.4-0.3c26.9,0,53.8,0,80.7,0c2,0,4,0,6,0c12.9,0,12.9-20,0-20c-23.4,0-46.8,0-70.2,0c-11,0-21.9,0-32.9,0
				c-18.4,0-36,9.4-43.7,26.7c-4.1,9.1-4.3,18.2-4.3,27.9c0,10.9,0,21.9,0,32.8c0,30.8,0,61.7,0,92.5c0,10.9,0,21.9,0,32.8
				c0,9.6,0.2,18.8,4.3,27.9c7.6,16.9,24.8,26.6,42.9,26.7c7.6,0,15.1,0,22.7,0c50.2,0,100.4,0.5,150.6,0
				c20.1-0.2,37.6-12.4,44.3-31.5c3.3-9.6,2.4-20.5,2.4-30.5c0-27.8,0-55.6,0-83.4c0-2.2,0-4.3,0-6.5
				C3544.2,600.9,3524.2,600.9,3524.2,613.8L3524.2,613.8z"/>
		</g>
	</g>
	<g>
		<path class="st7" d="M3378.2,661.2l10.5-42.4c0.2-0.9,0.7-1.7,1.3-2.3l131.7-134.4c5.7-5.8,15.1-5.9,20.8-0.1l15,15
			c5.7,5.7,5.7,15,0,20.7l-132.2,132.2c-0.6,0.6-1.2,1-2,1.2l-41.3,13.7C3379.8,665.5,3377.6,663.5,3378.2,661.2z"/>
		<line class="st8" x1="3503" y1="501.2" x2="3538.5" y2="536.7"/>
		<line class="st8" x1="3394.6" y1="617.5" x2="3428.9" y2="651.8"/>
	</g>
	<g>
		<g>
			<path class="st4" d="M3989,784.3c-27.8,0-55.7,0-83.5,0c-11.2,0-23.5,1.1-34.5-1.6c-22.8-5.6-40.3-24.7-43.8-48
				c-1.1-7.7-0.5-16-0.5-23.8c0-14.9,0-29.8,0-44.8c0-33.6,0-67.2,0-100.8c0-7.8-0.4-15.7,0.3-23.5c2.1-22.7,19.1-42.7,40.8-49.2
				c11.5-3.5,23.8-2.5,35.7-2.5c17.5,0,34.9,0,52.4,0c11,0,22-0.1,33,0c22.4,0.2,42.5,12.8,52.4,33c5.3,10.6,5.6,21.8,5.6,33.3
				c0,13.1,0,26.2,0,39.4c0,34.7,0,69.4,0,104.1c0,8.6,0,17.2,0,25.8c-0.1,19.3-9.3,37.9-25.6,48.7
				C4011.6,780.8,4000.6,784.1,3989,784.3c-12.9,0.1-12.9,20.1,0,20c28-0.3,54.4-15.3,68.1-39.9c7.7-13.9,9.9-28.8,9.9-44.4
				c0-31.9,0-63.7,0-95.6c0-25.3,0.2-50.7,0-76c-0.2-26.2-13.2-50.4-34.9-65.1c-15.3-10.3-32.7-13-50.7-13c-31.5,0-62.9,0-94.4,0
				c-21.9,0-43,7.8-58.4,23.8c-14.6,15.2-21.9,35.2-21.9,56.1c0,28.7,0,57.4,0,86.1c0,29.2,0,58.4,0,87.7c0,20.3,6.5,39.4,20.1,54.7
				c15.1,17,37,25.6,59.5,25.7c31.2,0,62.4,0,93.5,0c3,0,6,0,9.1,0C4001.8,804.3,4001.8,784.3,3989,784.3z"/>
		</g>
	</g>
	<g>
		<g>
			<path class="st4" d="M3870.9,579.4c40.2,0,80.5,0,120.7,0c5.8,0,11.5,0,17.3,0c12.9,0,12.9-20,0-20c-40.2,0-80.5,0-120.7,0
				c-5.8,0-11.5,0-17.3,0C3858,559.4,3858,579.4,3870.9,579.4L3870.9,579.4z"/>
		</g>
	</g>
	<g>
		<g>
			<path class="st4" d="M3870.9,643c40.2,0,80.5,0,120.7,0c5.8,0,11.5,0,17.3,0c12.9,0,12.9-20,0-20c-40.2,0-80.5,0-120.7,0
				c-5.8,0-11.5,0-17.3,0C3858,623,3858,643,3870.9,643L3870.9,643z"/>
		</g>
	</g>
	<g>
		<g>
			<path class="st4" d="M3870.9,706.6c40.2,0,80.5,0,120.7,0c5.8,0,11.5,0,17.3,0c12.9,0,12.9-20,0-20c-40.2,0-80.5,0-120.7,0
				c-5.8,0-11.5,0-17.3,0C3858,686.6,3858,706.6,3870.9,706.6L3870.9,706.6z"/>
		</g>
	</g>
	<g>
		<g>
			<path class="st9" d="M2999,38.5c-13.1-32.5-37.7-59.2-70.1-73.2c-32.2-13.9-69.2-14.9-101.8-1.6c-18,7.3-34.4,18.3-47.6,32.6
				c-13.7,14.9-22.3,31.9-29.7,50.5c-16.6,41.8-28.4,85.5-35,130c-7.6,51.5-8.6,103.6-2.4,155.3c1.5,12.7,18.9,13,20,0
				c5.2-60.5,55.3-109.2,115.7-114.3c8.9-0.7,17.7,0,26.6,0.2c9.3,0.1,18.6-0.8,27.7-2.6c16-3.2,31.7-9.6,45.4-18.5
				c24-15.6,42.1-38.5,52.2-65.2C3011,101.8,3010.5,68,2999,38.5c-2-5-6.7-8.5-12.3-7c-4.8,1.3-9,7.2-7,12.3
				c9.7,25,10.9,52,2.5,77.5c-8,24.4-24.7,45.7-46.4,59.4c-13.4,8.4-28.5,14-44.3,16.3c-8.6,1.2-17.2,1.1-25.9,0.6
				c-9.5-0.5-19,0.1-28.4,1.5c-32.2,4.7-62.9,20.2-85.4,43.9c-23.1,24.3-36.7,55.9-39.6,89.2c6.7,0,13.3,0,20,0
				c-10.1-85.1-1.1-171.5,26.6-252.5c6.2-18.2,12.5-37.3,22.8-53.6c8.9-14.1,21-26.1,35.2-34.8c26.9-16.6,59.7-21.3,90-12.6
				c32.7,9.4,60.1,33.7,72.8,65.3c2,5,6.7,8.5,12.3,7C2996.8,49.5,3001,43.5,2999,38.5z"/>
			<path class="st9" d="M2891.4,121.7c-15.6,5.9-32.7,2.8-44.1-9.8c-10.9-11.9-13-30.3-5.2-44.3c7.6-13.8,23.2-22,38.8-20.1
				c16.7,2.1,29.9,14.9,33.4,31.2C2917.8,96,2907.8,114.9,2891.4,121.7c-5,2.1-8.5,6.6-7,12.3c1.3,4.7,7.3,9.1,12.3,7
				c22.8-9.4,38.8-30.9,38.1-56.2c-0.6-25-17.3-47.1-41-54.8c-23.6-7.7-49.9,1.3-64.7,20.9c-14.5,19.1-15.6,46.5-2.5,66.7
				c14.9,22.9,44.4,33.1,70.1,23.3c5-1.9,8.5-6.7,7-12.3C2902.3,123.8,2896.4,119.7,2891.4,121.7z"/>
		</g>
	</g>
	<g>
		<g>
			<path class="st9" d="M3524.2,131.9c0,22.3,0,44.5,0,66.8c0,11.6,0,23.3,0,34.9c0,2.7,0.1,5.6-0.3,8.3
				c-1.4,8.6-7.3,16.3-15.3,19.8c-6.2,2.7-13.2,2.1-19.9,2.1c-10.9,0-21.8,0-32.8,0c-29.7,0-59.3,0-89,0c-11,0-22,0-33,0
				c-6.2,0-12.9,0.6-18.9-1.2c-11.9-3.7-18-14.8-18.1-26.7c0-7.8,0-15.6,0-23.5c0-49.5-0.2-98.9,0-148.4c0-13.2,8.3-25,21.9-27.2
				c7.1-1.2,15.2-0.3,22.4-0.3c26.9,0,53.8,0,80.7,0c2,0,4,0,6,0c12.9,0,12.9-20,0-20c-23.4,0-46.8,0-70.2,0c-11,0-21.9,0-32.9,0
				c-18.4,0-36,9.4-43.7,26.7c-4.1,9.1-4.3,18.2-4.3,27.9c0,10.9,0,21.9,0,32.8c0,30.8,0,61.7,0,92.5c0,10.9,0,21.9,0,32.8
				c0,9.6,0.2,18.8,4.3,27.9c7.6,16.9,24.8,26.6,42.9,26.7c7.6,0,15.1,0,22.7,0c50.2,0,100.4,0.5,150.6,0
				c20.1-0.2,37.6-12.4,44.3-31.5c3.3-9.6,2.4-20.5,2.4-30.5c0-27.8,0-55.6,0-83.4c0-2.2,0-4.3,0-6.5
				C3544.2,119,3524.2,119,3524.2,131.9L3524.2,131.9z"/>
		</g>
	</g>
	<g>
		<path class="st10" d="M3378.2,179.3l10.5-42.4c0.2-0.9,0.7-1.7,1.3-2.3L3521.7,0.1c5.7-5.8,15.1-5.9,20.8-0.1l15,15
			c5.7,5.7,5.7,15,0,20.7l-132.2,132.2c-0.6,0.6-1.2,1-2,1.2l-41.3,13.7C3379.8,183.6,3377.6,181.6,3378.2,179.3z"/>
		<line class="st11" x1="3503" y1="19.3" x2="3538.5" y2="54.8"/>
		<line class="st11" x1="3394.6" y1="135.6" x2="3428.9" y2="169.9"/>
	</g>
	<g>
		<g>
			<path class="st9" d="M3989,302.3c-27.8,0-55.7,0-83.5,0c-11.2,0-23.5,1.1-34.5-1.6c-22.8-5.6-40.3-24.7-43.8-48
				c-1.1-7.7-0.5-16-0.5-23.8c0-14.9,0-29.8,0-44.8c0-33.6,0-67.2,0-100.8c0-7.8-0.4-15.7,0.3-23.5c2.1-22.7,19.1-42.7,40.8-49.2
				c11.5-3.5,23.8-2.5,35.7-2.5c17.5,0,34.9,0,52.4,0c11,0,22-0.1,33,0c22.4,0.2,42.5,12.8,52.4,33c5.3,10.6,5.6,21.8,5.6,33.3
				c0,13.1,0,26.2,0,39.4c0,34.7,0,69.4,0,104.1c0,8.6,0,17.2,0,25.8c-0.1,19.3-9.3,37.9-25.6,48.7
				C4011.6,298.9,4000.6,302.2,3989,302.3c-12.9,0.1-12.9,20.1,0,20c28-0.3,54.4-15.3,68.1-39.9c7.7-13.9,9.9-28.8,9.9-44.4
				c0-31.9,0-63.7,0-95.6c0-25.3,0.2-50.7,0-76c-0.2-26.2-13.2-50.4-34.9-65.1c-15.3-10.3-32.7-13-50.7-13c-31.5,0-62.9,0-94.4,0
				c-21.9,0-43,7.8-58.4,23.8c-14.6,15.2-21.9,35.2-21.9,56.1c0,28.7,0,57.4,0,86.1c0,29.2,0,58.4,0,87.7c0,20.3,6.5,39.4,20.1,54.7
				c15.1,17,37,25.6,59.5,25.7c31.2,0,62.4,0,93.5,0c3,0,6,0,9.1,0C4001.8,322.3,4001.8,302.3,3989,302.3z"/>
		</g>
	</g>
	<g>
		<g>
			<path class="st9" d="M3870.9,97.5c40.2,0,80.5,0,120.7,0c5.8,0,11.5,0,17.3,0c12.9,0,12.9-20,0-20c-40.2,0-80.5,0-120.7,0
				c-5.8,0-11.5,0-17.3,0C3858,77.5,3858,97.5,3870.9,97.5L3870.9,97.5z"/>
		</g>
	</g>
	<g>
		<g>
			<path class="st9" d="M3870.9,161.1c40.2,0,80.5,0,120.7,0c5.8,0,11.5,0,17.3,0c12.9,0,12.9-20,0-20c-40.2,0-80.5,0-120.7,0
				c-5.8,0-11.5,0-17.3,0C3858,141.1,3858,161.1,3870.9,161.1L3870.9,161.1z"/>
		</g>
	</g>
	<g>
		<g>
			<path class="st12" d="M2961.4,1011.1c-13.1-32.5-37.7-59.2-70.1-73.2c-32.2-13.9-69.2-14.9-101.8-1.6
				c-18,7.3-34.4,18.3-47.6,32.6c-13.7,14.9-22.3,31.9-29.7,50.5c-16.6,41.8-28.4,85.5-35,130c-7.6,51.5-8.6,103.6-2.4,155.3
				c1.5,12.7,18.9,13,20,0c5.2-60.5,55.3-109.2,115.7-114.3c8.9-0.7,17.7,0,26.6,0.2c9.3,0.1,18.6-0.8,27.7-2.6
				c16-3.2,31.7-9.6,45.4-18.5c24-15.6,42.1-38.5,52.2-65.2C2973.3,1074.4,2972.9,1040.6,2961.4,1011.1c-2-5-6.7-8.5-12.3-7
				c-4.8,1.3-9,7.2-7,12.3c9.7,25,10.9,52,2.5,77.5c-8,24.4-24.7,45.7-46.4,59.4c-13.4,8.4-28.5,14-44.3,16.3
				c-8.6,1.2-17.2,1.1-25.9,0.6c-9.5-0.5-19,0.1-28.4,1.5c-32.2,4.7-62.9,20.2-85.4,43.9c-23.1,24.3-36.7,55.9-39.6,89.2
				c6.7,0,13.3,0,20,0c-10.1-85.1-1.1-171.5,26.6-252.5c6.2-18.2,12.5-37.3,22.8-53.6c8.9-14.1,21-26.1,35.2-34.8
				c26.9-16.6,59.7-21.3,90-12.6c32.7,9.4,60.1,33.7,72.8,65.3c2,5,6.7,8.5,12.3,7C2959.1,1022,2963.4,1016.1,2961.4,1011.1z"/>
			<path class="st12" d="M2853.7,1094.3c-15.6,5.9-32.7,2.8-44.1-9.8c-10.9-11.9-13-30.3-5.2-44.3c7.6-13.8,23.2-22,38.8-20.1
				c16.7,2.1,29.9,14.9,33.4,31.2C2880.2,1068.6,2870.2,1087.5,2853.7,1094.3c-5,2.1-8.5,6.6-7,12.3c1.3,4.7,7.3,9.1,12.3,7
				c22.8-9.4,38.8-30.9,38.1-56.2c-0.6-25-17.3-47.1-41-54.8c-23.6-7.7-49.9,1.3-64.7,20.9c-14.5,19.1-15.6,46.5-2.5,66.7
				c14.9,22.9,44.4,33.1,70.1,23.3c5-1.9,8.5-6.7,7-12.3C2864.7,1096.4,2858.8,1092.3,2853.7,1094.3z"/>
		</g>
	</g>
	<g>
		<g>
			<path class="st12" d="M3486.6,1104.5c0,22.3,0,44.5,0,66.8c0,11.6,0,23.3,0,34.9c0,2.7,0.1,5.6-0.3,8.3
				c-1.4,8.6-7.3,16.3-15.3,19.8c-6.2,2.7-13.2,2.1-19.9,2.1c-10.9,0-21.8,0-32.8,0c-29.7,0-59.3,0-89,0c-11,0-22,0-33,0
				c-6.2,0-12.9,0.6-18.9-1.2c-11.9-3.7-18-14.8-18.1-26.7c0-7.8,0-15.6,0-23.5c0-49.5-0.2-98.9,0-148.4c0-13.2,8.3-25,21.9-27.2
				c7.1-1.2,15.2-0.3,22.4-0.3c26.9,0,53.8,0,80.7,0c2,0,4,0,6,0c12.9,0,12.9-20,0-20c-23.4,0-46.8,0-70.2,0c-11,0-21.9,0-32.9,0
				c-18.4,0-36,9.4-43.7,26.7c-4.1,9.1-4.3,18.2-4.3,27.9c0,10.9,0,21.9,0,32.8c0,30.8,0,61.7,0,92.5c0,10.9,0,21.9,0,32.8
				c0,9.6,0.2,18.8,4.3,27.9c7.6,16.9,24.8,26.6,42.9,26.7c7.6,0,15.1,0,22.7,0c50.2,0,100.4,0.5,150.6,0
				c20.1-0.2,37.6-12.4,44.3-31.5c3.3-9.6,2.4-20.5,2.4-30.5c0-27.8,0-55.6,0-83.4c0-2.2,0-4.3,0-6.5
				C3506.6,1091.6,3486.6,1091.6,3486.6,1104.5L3486.6,1104.5z"/>
		</g>
	</g>
	<g>
		<path class="st13" d="M3340.6,1151.9l10.5-42.4c0.2-0.9,0.7-1.7,1.3-2.3l131.7-134.4c5.7-5.8,15.1-5.9,20.8-0.1l15,15
			c5.7,5.7,5.7,15,0,20.7l-132.2,132.2c-0.6,0.6-1.2,1-2,1.2l-41.3,13.7C3342.2,1156.2,3340,1154.2,3340.6,1151.9z"/>
		<line class="st14" x1="3465.4" y1="991.9" x2="3500.9" y2="1027.4"/>
		<line class="st14" x1="3357" y1="1108.1" x2="3391.3" y2="1142.5"/>
	</g>
	<g>
		<g>
			<path class="st9" d="M3870.9,224.7c40.2,0,80.5,0,120.7,0c5.8,0,11.5,0,17.3,0c12.9,0,12.9-20,0-20c-40.2,0-80.5,0-120.7,0
				c-5.8,0-11.5,0-17.3,0C3858,204.7,3858,224.7,3870.9,224.7L3870.9,224.7z"/>
		</g>
	</g>
	<g>
		<g>
			<path class="st12" d="M4007.8,1274.9c-27.8,0-55.7,0-83.5,0c-11.2,0-23.5,1.1-34.5-1.6c-22.8-5.6-40.3-24.7-43.8-48
				c-1.1-7.7-0.5-16-0.5-23.8c0-14.9,0-29.8,0-44.8c0-33.6,0-67.2,0-100.8c0-7.8-0.4-15.7,0.3-23.5c2.1-22.7,19.1-42.7,40.8-49.2
				c11.5-3.5,23.8-2.5,35.7-2.5c17.5,0,34.9,0,52.4,0c11,0,22-0.1,33,0c22.4,0.2,42.5,12.8,52.4,33c5.3,10.6,5.6,21.8,5.6,33.3
				c0,13.1,0,26.2,0,39.4c0,34.7,0,69.4,0,104.1c0,8.6,0,17.2,0,25.8c-0.1,19.3-9.3,37.9-25.6,48.7
				C4030.5,1271.5,4019.4,1274.8,4007.8,1274.9c-12.9,0.1-12.9,20.1,0,20c28-0.3,54.4-15.3,68.1-39.9c7.7-13.9,9.9-28.8,9.9-44.4
				c0-31.9,0-63.7,0-95.6c0-25.3,0.2-50.7,0-76c-0.2-26.2-13.2-50.4-34.9-65.1c-15.3-10.3-32.7-13-50.7-13c-31.5,0-62.9,0-94.4,0
				c-21.9,0-43,7.8-58.4,23.8c-14.6,15.2-21.9,35.2-21.9,56.1c0,28.7,0,57.4,0,86.1c0,29.2,0,58.4,0,87.7c0,20.3,6.5,39.4,20.1,54.7
				c15.1,17,37,25.6,59.6,25.7c31.2,0,62.4,0,93.5,0c3,0,6,0,9.1,0C4020.7,1294.9,4020.7,1274.9,4007.8,1274.9z"/>
		</g>
	</g>
	<g>
		<g>
			<path class="st12" d="M3889.7,1070.1c40.2,0,80.5,0,120.7,0c5.8,0,11.5,0,17.3,0c12.9,0,12.9-20,0-20c-40.2,0-80.5,0-120.7,0
				c-5.8,0-11.5,0-17.3,0C3876.8,1050.1,3876.8,1070.1,3889.7,1070.1L3889.7,1070.1z"/>
		</g>
	</g>
	<g>
		<g>
			<path class="st12" d="M3889.7,1133.7c40.2,0,80.5,0,120.7,0c5.8,0,11.5,0,17.3,0c12.9,0,12.9-20,0-20c-40.2,0-80.5,0-120.7,0
				c-5.8,0-11.5,0-17.3,0C3876.8,1113.7,3876.8,1133.7,3889.7,1133.7L3889.7,1133.7z"/>
		</g>
	</g>
	<g>
		<g>
			<path class="st12" d="M3889.7,1197.3c40.2,0,80.5,0,120.7,0c5.8,0,11.5,0,17.3,0c12.9,0,12.9-20,0-20c-40.2,0-80.5,0-120.7,0
				c-5.8,0-11.5,0-17.3,0C3876.8,1177.3,3876.8,1197.3,3889.7,1197.3L3889.7,1197.3z"/>
		</g>
	</g>
	<g>
		<g>
			<path class="st15" d="M2999-401.5c-13.1-32.5-37.7-59.2-70.1-73.2c-32.2-13.9-69.2-14.9-101.8-1.6c-18,7.3-34.4,18.3-47.6,32.6
				c-13.7,14.9-22.3,31.9-29.7,50.5c-16.6,41.8-28.4,85.5-35,130c-7.6,51.5-8.6,103.6-2.4,155.3c1.5,12.7,18.9,13,20,0
				c5.2-60.5,55.3-109.2,115.7-114.3c8.9-0.7,17.7,0,26.6,0.2c9.3,0.1,18.6-0.8,27.7-2.6c16-3.2,31.7-9.6,45.4-18.5
				c24-15.6,42.1-38.5,52.2-65.2C3011-338.2,3010.5-372,2999-401.5c-2-5-6.7-8.5-12.3-7c-4.8,1.3-9,7.2-7,12.3
				c9.7,25,10.9,52,2.5,77.5c-8,24.4-24.7,45.7-46.4,59.4c-13.4,8.4-28.5,14-44.3,16.3c-8.6,1.2-17.2,1.1-25.9,0.6
				c-9.5-0.5-19,0.1-28.4,1.5c-32.2,4.7-62.9,20.2-85.4,43.9c-23.1,24.3-36.7,55.9-39.6,89.2c6.7,0,13.3,0,20,0
				c-10.1-85.1-1.1-171.5,26.6-252.5c6.2-18.2,12.5-37.3,22.8-53.6c8.9-14.1,21-26.1,35.2-34.8c26.9-16.6,59.7-21.3,90-12.6
				c32.7,9.4,60.1,33.7,72.8,65.3c2,5,6.7,8.5,12.3,7C2996.8-390.5,3001-396.5,2999-401.5z"/>
			<path class="st15" d="M2891.4-318.3c-15.6,5.9-32.7,2.8-44.1-9.8c-10.9-11.9-13-30.3-5.2-44.3c7.6-13.8,23.2-22,38.8-20.1
				c16.7,2.1,29.9,14.9,33.4,31.2C2917.8-344,2907.8-325.1,2891.4-318.3c-5,2.1-8.5,6.6-7,12.3c1.3,4.7,7.3,9.1,12.3,7
				c22.8-9.4,38.8-30.9,38.1-56.2c-0.6-25-17.3-47.1-41-54.8c-23.6-7.7-49.9,1.3-64.7,20.9c-14.5,19.1-15.6,46.5-2.5,66.7
				c14.9,22.9,44.4,33.1,70.1,23.3c5-1.9,8.5-6.7,7-12.3C2902.3-316.2,2896.4-320.3,2891.4-318.3z"/>
		</g>
	</g>
	<g>
		<g>
			<path class="st15" d="M3524.2-308.1c0,22.3,0,44.5,0,66.8c0,11.6,0,23.3,0,34.9c0,2.7,0.1,5.6-0.3,8.3
				c-1.4,8.6-7.3,16.3-15.3,19.8c-6.2,2.7-13.2,2.1-19.9,2.1c-10.9,0-21.8,0-32.8,0c-29.7,0-59.3,0-89,0c-11,0-22,0-33,0
				c-6.2,0-12.9,0.6-18.9-1.2c-11.9-3.7-18-14.8-18.1-26.7c0-7.8,0-15.6,0-23.5c0-49.5-0.2-98.9,0-148.4c0-13.2,8.3-25,21.9-27.2
				c7.1-1.2,15.2-0.3,22.4-0.3c26.9,0,53.8,0,80.7,0c2,0,4,0,6,0c12.9,0,12.9-20,0-20c-23.4,0-46.8,0-70.2,0c-11,0-21.9,0-32.9,0
				c-18.4,0-36,9.4-43.7,26.7c-4.1,9.1-4.3,18.2-4.3,27.9c0,10.9,0,21.9,0,32.8c0,30.8,0,61.7,0,92.5c0,10.9,0,21.9,0,32.8
				c0,9.6,0.2,18.8,4.3,27.9c7.6,16.9,24.8,26.6,42.9,26.7c7.6,0,15.1,0,22.7,0c50.2,0,100.4,0.5,150.6,0
				c20.1-0.2,37.6-12.4,44.3-31.5c3.3-9.6,2.4-20.5,2.4-30.5c0-27.8,0-55.6,0-83.4c0-2.2,0-4.3,0-6.5
				C3544.2-321,3524.2-321,3524.2-308.1L3524.2-308.1z"/>
		</g>
	</g>
	<g>
		<path class="st16" d="M3378.2-260.7l10.5-42.4c0.2-0.9,0.7-1.7,1.3-2.3l131.7-134.4c5.7-5.8,15.1-5.9,20.8-0.1l15,15
			c5.7,5.7,5.7,15,0,20.7l-132.2,132.2c-0.6,0.6-1.2,1-2,1.2l-41.3,13.7C3379.8-256.4,3377.6-258.4,3378.2-260.7z"/>
		<line class="st17" x1="3503" y1="-420.7" x2="3538.5" y2="-385.2"/>
		<line class="st17" x1="3394.6" y1="-304.4" x2="3428.9" y2="-270.1"/>
	</g>
	<g>
		<g>
			<path class="st15" d="M3989-137.7c-27.8,0-55.7,0-83.5,0c-11.2,0-23.5,1.1-34.5-1.6c-22.8-5.6-40.3-24.7-43.8-48
				c-1.1-7.7-0.5-16-0.5-23.8c0-14.9,0-29.8,0-44.8c0-33.6,0-67.2,0-100.8c0-7.8-0.4-15.7,0.3-23.5c2.1-22.7,19.1-42.7,40.8-49.2
				c11.5-3.5,23.8-2.5,35.7-2.5c17.5,0,34.9,0,52.4,0c11,0,22-0.1,33,0c22.4,0.2,42.5,12.8,52.4,33c5.3,10.6,5.6,21.8,5.6,33.3
				c0,13.1,0,26.2,0,39.4c0,34.7,0,69.4,0,104.1c0,8.6,0,17.2,0,25.8c-0.1,19.3-9.3,37.9-25.6,48.7
				C4011.6-141.1,4000.6-137.8,3989-137.7c-12.9,0.1-12.9,20.1,0,20c28-0.3,54.4-15.3,68.1-39.9c7.7-13.9,9.9-28.8,9.9-44.4
				c0-31.9,0-63.7,0-95.6c0-25.3,0.2-50.7,0-76c-0.2-26.2-13.2-50.4-34.9-65.1c-15.3-10.3-32.7-13-50.7-13c-31.5,0-62.9,0-94.4,0
				c-21.9,0-43,7.8-58.4,23.8c-14.6,15.2-21.9,35.2-21.9,56.1c0,28.7,0,57.4,0,86.1c0,29.2,0,58.4,0,87.7c0,20.3,6.5,39.4,20.1,54.7
				c15.1,17,37,25.6,59.5,25.7c31.2,0,62.4,0,93.5,0c3,0,6,0,9.1,0C4001.8-117.7,4001.8-137.7,3989-137.7z"/>
		</g>
	</g>
	<g>
		<g>
			<path class="st15" d="M3870.9-342.5c40.2,0,80.5,0,120.7,0c5.8,0,11.5,0,17.3,0c12.9,0,12.9-20,0-20c-40.2,0-80.5,0-120.7,0
				c-5.8,0-11.5,0-17.3,0C3858-362.5,3858-342.5,3870.9-342.5L3870.9-342.5z"/>
		</g>
	</g>
	<g>
		<g>
			<path class="st15" d="M3870.9-278.9c40.2,0,80.5,0,120.7,0c5.8,0,11.5,0,17.3,0c12.9,0,12.9-20,0-20c-40.2,0-80.5,0-120.7,0
				c-5.8,0-11.5,0-17.3,0C3858-298.9,3858-278.9,3870.9-278.9L3870.9-278.9z"/>
		</g>
	</g>
	<g>
		<g>
			<path class="st15" d="M3870.9-215.3c40.2,0,80.5,0,120.7,0c5.8,0,11.5,0,17.3,0c12.9,0,12.9-20,0-20c-40.2,0-80.5,0-120.7,0
				c-5.8,0-11.5,0-17.3,0C3858-235.3,3858-215.3,3870.9-215.3L3870.9-215.3z"/>
		</g>
	</g>
</g>
<g id="參考色">
	<rect x="-1772.2" y="-1059" class="st18" width="131.3" height="167.2"/>
	<rect x="-1772.2" y="-920.6" class="st3" width="131.3" height="5.8"/>
	<polygon class="st3" points="-1706.5,-996.9 -1734.6,-941.6 -1678.4,-941.6 	"/>
	<polygon class="st3" points="-1706.5,-1069.8 -1695.8,-1079.8 -1717.2,-1079.8 	"/>
	<rect x="-1746.5" y="-1117.8" style="fill:none;" width="80" height="19.5"/>
	<text transform="matrix(1 0 0 1 -1738.4446 -1102.355)" class="st3" style="font-family:'DIN-Black'; font-size:18px;">Answer</text>
	<g>
		<g>
			<path class="st19" d="M-1734.6-1089.3c-0.3-0.8-0.5-1.6-0.5-2.6s0.2-1.8,0.5-2.6c0.3-0.8,0.8-1.5,1.4-2.1l0.8,1
				c-0.4,0.5-0.8,1.1-1,1.7c-0.2,0.6-0.3,1.3-0.3,2s0.1,1.4,0.3,2c0.2,0.6,0.6,1.2,1,1.7l-0.8,1
				C-1733.8-1087.8-1734.3-1088.5-1734.6-1089.3z"/>
			<path class="st19" d="M-1730.6-1089c-0.4-0.2-0.7-0.5-0.9-0.9c-0.2-0.4-0.3-0.9-0.3-1.4v-4.5h1.3v4.6c0,0.4,0.1,0.7,0.3,0.9
				s0.5,0.3,0.9,0.3c0.4,0,0.7-0.1,0.9-0.3c0.2-0.2,0.3-0.5,0.3-0.9v-4.6h1.3v4.5c0,0.6-0.1,1-0.3,1.4c-0.2,0.4-0.5,0.7-0.9,0.9
				c-0.4,0.2-0.9,0.3-1.4,0.3S-1730.2-1088.8-1730.6-1089z"/>
			<path class="st19" d="M-1725.2-1093.8h1.3v5.1h-1.3V-1093.8z M-1722.3-1091.8c0-0.2-0.1-0.4-0.2-0.6c-0.1-0.1-0.3-0.2-0.6-0.2
				c-0.2,0-0.4,0.1-0.6,0.2c-0.1,0.1-0.2,0.3-0.2,0.6l-0.1-1.1c0.2-0.3,0.3-0.6,0.5-0.7c0.2-0.2,0.5-0.2,0.8-0.2
				c0.5,0,0.9,0.2,1.2,0.5c0.3,0.4,0.4,0.9,0.4,1.5v3.1h-1.3V-1091.8z"/>
			<path class="st19" d="M-1719-1088.9c-0.3-0.2-0.5-0.4-0.6-0.8c-0.1-0.3-0.2-0.7-0.2-1.2v-0.8c0-0.5,0.1-0.9,0.2-1.2
				s0.3-0.6,0.6-0.8c0.3-0.2,0.6-0.3,0.9-0.3c0.3,0,0.5,0.1,0.7,0.2c0.2,0.2,0.4,0.4,0.5,0.7l-0.1,1.1c0-0.2,0-0.3-0.1-0.4
				s-0.1-0.2-0.3-0.3c-0.1-0.1-0.2-0.1-0.4-0.1c-0.3,0-0.4,0.1-0.6,0.3c-0.1,0.2-0.2,0.4-0.2,0.7v0.8c0,0.3,0.1,0.5,0.2,0.7
				c0.1,0.2,0.3,0.2,0.6,0.2c0.2,0,0.3,0,0.4-0.1c0.1-0.1,0.2-0.2,0.3-0.3s0.1-0.3,0.1-0.4l0.1,1.2c-0.1,0.3-0.3,0.5-0.5,0.6
				c-0.2,0.2-0.5,0.2-0.8,0.2C-1718.4-1088.7-1718.7-1088.8-1719-1088.9z M-1716.9-1095.8h1.3v7.1h-1.3V-1095.8z"/>
			<path class="st19" d="M-1712.8-1088.7c0,0-0.2-0.1-0.5-0.3c-0.3-0.2-0.6-0.4-0.8-0.8c-0.2-0.3-0.3-0.8-0.3-1.2v-0.6
				c0-0.5,0.1-0.9,0.3-1.3c0.2-0.4,0.4-0.6,0.8-0.8c0.3-0.2,0.7-0.3,1.2-0.3c0.4,0,0.8,0.1,1.1,0.3s0.6,0.5,0.7,1
				c0.2,0.4,0.2,0.9,0.2,1.5v0.3h-3.5v-0.9h2.2l0-0.1c0-0.3-0.1-0.5-0.3-0.7c-0.1-0.2-0.3-0.2-0.6-0.2c-0.3,0-0.6,0.1-0.8,0.3
				c-0.2,0.2-0.3,0.5-0.3,0.8v0.6c0,0.3,0.1,0.6,0.3,0.8c0.2,0.2,0.5,0.3,0.8,0.3c0.2,0,0.4,0,0.5-0.1c0.2-0.1,0.3-0.2,0.5-0.3
				l0.9,0.8c-0.3,0.2-0.6,0.4-0.9,0.6c-0.3,0.1-0.7,0.2-1,0.2C-1712.5-1088.7-1712.8-1088.7-1712.8-1088.7z"/>
			<path class="st19" d="M-1708.9-1093.8h1.4v5.1h-1.4V-1093.8z M-1706.3-1092.5c-0.1,0-0.2,0-0.3,0c-0.3,0-0.5,0.1-0.6,0.3
				c-0.1,0.2-0.2,0.4-0.2,0.7l-0.1-1.3c0.1-0.3,0.3-0.5,0.5-0.7c0.2-0.2,0.5-0.3,0.7-0.3c0.2,0,0.4,0,0.6,0.1
				c0.2,0.1,0.3,0.2,0.4,0.3l-0.8,1.1C-1706.1-1092.5-1706.2-1092.5-1706.3-1092.5z"/>
			<path class="st19" d="M-1703.1-1088.7c0,0-0.1,0-0.4-0.1c-0.3-0.1-0.6-0.1-0.8-0.2s-0.5-0.2-0.7-0.4l0.8-1
				c0.2,0.2,0.5,0.3,0.8,0.4s0.5,0.1,0.8,0.1c0.3,0,0.6,0,0.7-0.1c0.2-0.1,0.3-0.2,0.3-0.3c0-0.1,0-0.2-0.1-0.3s-0.2-0.1-0.3-0.1
				c-0.1,0-0.3,0-0.5-0.1c-0.1,0-0.1,0-0.2,0c-0.1,0-0.1,0-0.2,0c0,0,0,0,0,0c0,0,0,0,0,0c-0.4,0-0.7-0.1-0.9-0.2s-0.4-0.2-0.6-0.4
				c-0.2-0.2-0.2-0.5-0.2-0.9c0-0.3,0.1-0.6,0.2-0.9s0.4-0.4,0.7-0.5c0.3-0.1,0.7-0.2,1.1-0.2c0.3,0,0.5,0,0.8,0.1
				c0.3,0.1,0.5,0.1,0.7,0.2s0.5,0.2,0.6,0.4l-0.8,1c-0.2-0.1-0.5-0.2-0.7-0.3s-0.5-0.1-0.7-0.1c-0.3,0-0.5,0-0.6,0.1
				s-0.2,0.1-0.2,0.3c0,0.1,0,0.2,0.1,0.2c0.1,0,0.2,0.1,0.3,0.1c0.1,0,0.3,0,0.5,0.1c0,0,0.1,0,0.1,0s0.1,0,0.1,0c0,0,0,0,0,0
				s0,0,0,0c0.4,0,0.7,0.1,1,0.2s0.5,0.2,0.6,0.4c0.2,0.2,0.3,0.5,0.3,0.9c0,0.4-0.1,0.7-0.3,0.9s-0.4,0.4-0.7,0.6
				c-0.3,0.1-0.7,0.2-1.2,0.2C-1703-1088.7-1703.1-1088.7-1703.1-1088.7z"/>
			<path class="st19" d="M-1699.8-1093.8h2.5v1.1h-2.5V-1093.8z M-1699-1089.1c-0.2-0.2-0.3-0.6-0.3-1v-5.2h1.3v4.9
				c0,0.1,0,0.2,0.1,0.3c0,0.1,0.1,0.1,0.2,0.1h0.3v1.3h-0.7C-1698.4-1088.7-1698.8-1088.8-1699-1089.1z"/>
			<path class="st19" d="M-1696-1089.1c-0.3-0.3-0.4-0.7-0.4-1.2c0-0.5,0.2-0.9,0.5-1.1c0.3-0.3,0.8-0.4,1.4-0.4h1.3l0.1,1h-1.3
				c-0.2,0-0.4,0-0.5,0.1c-0.1,0.1-0.2,0.2-0.2,0.4c0,0.2,0.1,0.3,0.2,0.4c0.1,0.1,0.3,0.1,0.6,0.1c0.4,0,0.6,0,0.8-0.1
				c0.2-0.1,0.3-0.2,0.3-0.4l0.1,0.7c0,0.2-0.1,0.3-0.3,0.5c-0.1,0.1-0.3,0.2-0.6,0.3c-0.2,0.1-0.5,0.1-0.7,0.1
				C-1695.3-1088.7-1695.7-1088.8-1696-1089.1z M-1693.4-1092c0-0.2-0.1-0.4-0.2-0.5s-0.4-0.2-0.7-0.2c-0.2,0-0.4,0-0.6,0.1
				s-0.4,0.1-0.5,0.3l-0.8-0.8c0.2-0.2,0.5-0.4,0.8-0.5c0.3-0.1,0.7-0.2,1.1-0.2c0.4,0,0.8,0.1,1.1,0.2c0.3,0.1,0.6,0.4,0.7,0.6
				c0.2,0.3,0.2,0.6,0.2,1v3.3h-1.2V-1092z"/>
			<path class="st19" d="M-1690.8-1093.8h1.3v5.1h-1.3V-1093.8z M-1687.9-1091.8c0-0.2-0.1-0.4-0.2-0.6c-0.1-0.1-0.3-0.2-0.6-0.2
				c-0.2,0-0.4,0.1-0.6,0.2c-0.1,0.1-0.2,0.3-0.2,0.6l-0.1-1.1c0.2-0.3,0.3-0.6,0.5-0.7c0.2-0.2,0.5-0.2,0.8-0.2
				c0.5,0,0.9,0.2,1.2,0.5c0.3,0.4,0.4,0.9,0.4,1.5v3.1h-1.3V-1091.8z"/>
			<path class="st19" d="M-1684.6-1088.9c-0.3-0.2-0.5-0.4-0.6-0.8c-0.1-0.3-0.2-0.7-0.2-1.2v-0.8c0-0.5,0.1-0.9,0.2-1.2
				s0.3-0.6,0.6-0.8c0.3-0.2,0.6-0.3,0.9-0.3c0.3,0,0.5,0.1,0.7,0.2c0.2,0.2,0.4,0.4,0.5,0.7l-0.1,1.1c0-0.2,0-0.3-0.1-0.4
				s-0.1-0.2-0.3-0.3c-0.1-0.1-0.2-0.1-0.4-0.1c-0.3,0-0.4,0.1-0.6,0.3c-0.1,0.2-0.2,0.4-0.2,0.7v0.8c0,0.3,0.1,0.5,0.2,0.7
				c0.1,0.2,0.3,0.2,0.6,0.2c0.2,0,0.3,0,0.4-0.1c0.1-0.1,0.2-0.2,0.3-0.3s0.1-0.3,0.1-0.4l0.1,1.2c-0.1,0.3-0.3,0.5-0.5,0.6
				c-0.2,0.2-0.5,0.2-0.8,0.2C-1684-1088.7-1684.4-1088.8-1684.6-1088.9z M-1682.5-1095.8h1.3v7.1h-1.3V-1095.8z"/>
			<path class="st19" d="M-1680.5-1088.2c0.4-0.5,0.8-1.1,1-1.7c0.2-0.6,0.3-1.3,0.3-2s-0.1-1.4-0.3-2c-0.2-0.6-0.6-1.2-1-1.7l0.8-1
				c0.6,0.6,1.1,1.3,1.4,2.1c0.3,0.8,0.5,1.6,0.5,2.6s-0.2,1.8-0.5,2.6c-0.3,0.8-0.8,1.5-1.4,2.1L-1680.5-1088.2z"/>
		</g>
	</g>
	<text transform="matrix(1 0 0 1 -1724.2996 -1025.696)" class="st3" style="font-family:'MicrosoftJhengHeiBold'; font-size:8px;">Resource</text>
	<text transform="matrix(1 0 0 1 -1720.7 -1008.446)" class="st19" style="font-family:'MicrosoftJhengHeiBold'; font-size:8px;">Human</text>
	<text transform="matrix(1 0 0 1 -1765.9644 -950.2498)" class="st3" style="font-family:'MicrosoftJhengHeiBold'; font-size:8px;">Change</text>
	
		<text transform="matrix(1 0 0 1 -1760.7104 -932.9998)" class="st19" style="font-family:'MicrosoftJhengHeiBold'; font-size:8px;">Time</text>
	<text transform="matrix(1 0 0 1 -1669.3269 -950.2498)" class="st3" style="font-family:'MicrosoftJhengHeiBold'; font-size:8px;">Gap</text>
	
		<text transform="matrix(1 0 0 1 -1672.9734 -932.9998)" class="st19" style="font-family:'MicrosoftJhengHeiBold'; font-size:8px;">Space</text>
	<rect x="-1636.7" y="-1059" class="st18" width="131.3" height="167.2"/>
	<rect x="-1636.7" y="-920.6" class="st2" width="131.3" height="5.8"/>
	<polygon class="st2" points="-1571,-996.9 -1599.1,-941.6 -1542.9,-941.6 	"/>
	<polygon class="st2" points="-1571,-1069.8 -1560.3,-1079.8 -1581.7,-1079.8 	"/>
	<rect x="-1611" y="-1117.8" style="fill:none;" width="80" height="19.5"/>
	<text transform="matrix(1 0 0 1 -1586.5647 -1102.355)" class="st2" style="font-family:'DIN-Black'; font-size:18px;">Ask</text>
	<g>
		<g>
			<path class="st19" d="M-1583.2-1089.3c-0.3-0.8-0.5-1.6-0.5-2.6s0.2-1.8,0.5-2.6c0.3-0.8,0.8-1.5,1.4-2.1l0.8,1
				c-0.4,0.5-0.8,1.1-1,1.7c-0.2,0.6-0.3,1.3-0.3,2s0.1,1.4,0.3,2c0.2,0.6,0.6,1.2,1,1.7l-0.8,1
				C-1582.4-1087.8-1582.9-1088.5-1583.2-1089.3z"/>
			<path class="st19" d="M-1580.2-1095.8h1.3v7.1h-1.3V-1095.8z M-1579.6-1092.8h2.3c0.2,0,0.3,0,0.4-0.1c0.1-0.1,0.2-0.2,0.3-0.3
				s0.1-0.3,0.1-0.5c0-0.2,0-0.3-0.1-0.5c-0.1-0.1-0.2-0.2-0.3-0.3c-0.1-0.1-0.3-0.1-0.4-0.1h-2.3v-1.3h2.2c0.4,0,0.8,0.1,1.2,0.3
				c0.3,0.2,0.6,0.4,0.8,0.8s0.3,0.7,0.3,1.1s-0.1,0.8-0.3,1.1c-0.2,0.3-0.4,0.6-0.8,0.8c-0.3,0.2-0.7,0.3-1.2,0.3h-2.2V-1092.8z"/>
			<path class="st19" d="M-1572.8-1090.4c0,0.1,0,0.2,0.1,0.3c0.1,0.1,0.2,0.1,0.3,0.1h0.2v1.3h-0.7c-0.4,0-0.7-0.1-0.9-0.4
				s-0.3-0.6-0.3-1v-5.8h1.3V-1090.4z"/>
			<path class="st19" d="M-1571-1089.1c-0.3-0.3-0.4-0.7-0.4-1.2c0-0.5,0.2-0.9,0.5-1.1c0.3-0.3,0.8-0.4,1.4-0.4h1.3l0.1,1h-1.3
				c-0.2,0-0.4,0-0.5,0.1c-0.1,0.1-0.2,0.2-0.2,0.4c0,0.2,0.1,0.3,0.2,0.4c0.1,0.1,0.3,0.1,0.6,0.1c0.4,0,0.6,0,0.8-0.1
				c0.2-0.1,0.3-0.2,0.3-0.4l0.1,0.7c0,0.2-0.1,0.3-0.3,0.5c-0.1,0.1-0.3,0.2-0.6,0.3c-0.2,0.1-0.5,0.1-0.7,0.1
				C-1570.4-1088.7-1570.8-1088.8-1571-1089.1z M-1568.4-1092c0-0.2-0.1-0.4-0.2-0.5s-0.4-0.2-0.7-0.2c-0.2,0-0.4,0-0.6,0.1
				s-0.4,0.1-0.5,0.3l-0.8-0.8c0.2-0.2,0.5-0.4,0.8-0.5c0.3-0.1,0.7-0.2,1.1-0.2c0.4,0,0.8,0.1,1.1,0.2c0.3,0.1,0.6,0.4,0.7,0.6
				c0.2,0.3,0.2,0.6,0.2,1v3.3h-1.2V-1092z"/>
			<path class="st19" d="M-1565.9-1093.8h1.3v5.1h-1.3V-1093.8z M-1563-1091.8c0-0.2-0.1-0.4-0.2-0.6c-0.1-0.1-0.3-0.2-0.6-0.2
				c-0.2,0-0.4,0.1-0.6,0.2c-0.1,0.1-0.2,0.3-0.2,0.6l-0.1-1.1c0.2-0.3,0.3-0.6,0.5-0.7c0.2-0.2,0.5-0.2,0.8-0.2
				c0.5,0,0.9,0.2,1.2,0.5c0.3,0.4,0.4,0.9,0.4,1.5v3.1h-1.3V-1091.8z"/>
			<path class="st19" d="M-1561-1088.2c0.4-0.5,0.8-1.1,1-1.7c0.2-0.6,0.3-1.3,0.3-2s-0.1-1.4-0.3-2c-0.2-0.6-0.6-1.2-1-1.7l0.8-1
				c0.6,0.6,1.1,1.3,1.4,2.1c0.3,0.8,0.5,1.6,0.5,2.6s-0.2,1.8-0.5,2.6c-0.3,0.8-0.8,1.5-1.4,2.1L-1561-1088.2z"/>
		</g>
	</g>
	<text transform="matrix(1 0 0 1 -1582.5984 -1025.696)" class="st2" style="font-family:'MicrosoftJhengHeiBold'; font-size:8px;">Intent</text>
	<text transform="matrix(1 0 0 1 -1585.2 -1008.446)" class="st19" style="font-family:'MicrosoftJhengHeiBold'; font-size:8px;">Human</text>
	<text transform="matrix(1 0 0 1 -1631.8374 -950.2498)" class="st2" style="font-family:'MicrosoftJhengHeiBold'; font-size:8px;">Urgency</text>
	
		<text transform="matrix(1 0 0 1 -1625.2104 -932.9998)" class="st19" style="font-family:'MicrosoftJhengHeiBold'; font-size:8px;">Time</text>
	<text transform="matrix(1 0 0 1 -1535.3992 -950.2498)" class="st2" style="font-family:'MicrosoftJhengHeiBold'; font-size:8px;">Type</text>
	
		<text transform="matrix(1 0 0 1 -1537.4734 -932.9998)" class="st19" style="font-family:'MicrosoftJhengHeiBold'; font-size:8px;">Space</text>
	<rect x="-1501.2" y="-1059" class="st18" width="131.3" height="167.2"/>
	<rect x="-1501.2" y="-920.6" class="st20" width="131.3" height="5.8"/>
	<polygon class="st20" points="-1435.5,-996.9 -1463.6,-941.6 -1407.4,-941.6 	"/>
	<polygon class="st20" points="-1435.5,-1069.8 -1424.8,-1079.8 -1446.2,-1079.8 	"/>
	<rect x="-1475.5" y="-1117.8" style="fill:none;" width="80" height="19.5"/>
	<text transform="matrix(1 0 0 1 -1459.3083 -1102.355)" class="st20" style="font-family:'DIN-Black'; font-size:18px;">Apply</text>
	<g>
		<g>
			<path class="st19" d="M-1445-1089.3c-0.3-0.8-0.5-1.6-0.5-2.6s0.2-1.8,0.5-2.6c0.3-0.8,0.8-1.5,1.4-2.1l0.8,1
				c-0.4,0.5-0.8,1.1-1,1.7c-0.2,0.6-0.3,1.3-0.3,2s0.1,1.4,0.3,2c0.2,0.6,0.6,1.2,1,1.7l-0.8,1
				C-1444.2-1087.8-1444.7-1088.5-1445-1089.3z"/>
			<path class="st19" d="M-1440-1095.8h0.8l2.7,7.1h-1.4l-1.7-4.8l-1.7,4.8h-1.4L-1440-1095.8z M-1441.5-1091.2h3.7v1.3h-3.7
				V-1091.2z"/>
			<path class="st19" d="M-1434.3-1088.7c0,0-0.2-0.1-0.5-0.3c-0.3-0.2-0.6-0.5-0.8-0.8s-0.3-0.8-0.3-1.3v-0.5
				c0-0.5,0.1-0.9,0.3-1.3c0.2-0.3,0.4-0.6,0.8-0.8c0.3-0.2,0.8-0.3,1.2-0.3c0.3,0,0.5,0,0.8,0.1c0.2,0.1,0.5,0.2,0.7,0.3
				s0.4,0.3,0.5,0.4l-0.9,0.8c-0.1-0.1-0.3-0.2-0.4-0.3c-0.2-0.1-0.3-0.1-0.5-0.1c-0.3,0-0.6,0.1-0.8,0.3c-0.2,0.2-0.3,0.4-0.3,0.8
				v0.5c0,0.3,0.1,0.6,0.3,0.8c0.2,0.2,0.4,0.3,0.8,0.3c0.2,0,0.4,0,0.5-0.1s0.3-0.2,0.4-0.3l0.9,0.9c-0.1,0.2-0.3,0.3-0.5,0.4
				c-0.2,0.1-0.4,0.2-0.7,0.3s-0.5,0.1-0.8,0.1C-1434-1088.7-1434.3-1088.7-1434.3-1088.7z"/>
			<path class="st19" d="M-1431.1-1093.8h2.5v1.1h-2.5V-1093.8z M-1430.3-1089.1c-0.2-0.2-0.3-0.6-0.3-1v-5.2h1.3v4.9
				c0,0.1,0,0.2,0.1,0.3c0,0.1,0.1,0.1,0.2,0.1h0.3v1.3h-0.7C-1429.7-1088.7-1430.1-1088.8-1430.3-1089.1z"/>
			<path class="st19" d="M-1428.1-1088.2c0.4-0.5,0.8-1.1,1-1.7c0.2-0.6,0.3-1.3,0.3-2s-0.1-1.4-0.3-2c-0.2-0.6-0.6-1.2-1-1.7l0.8-1
				c0.6,0.6,1.1,1.3,1.4,2.1c0.3,0.8,0.5,1.6,0.5,2.6s-0.2,1.8-0.5,2.6c-0.3,0.8-0.8,1.5-1.4,2.1L-1428.1-1088.2z"/>
		</g>
	</g>
	
		<text transform="matrix(1 0 0 1 -1459.5867 -1025.696)" class="st20" style="font-family:'MicrosoftJhengHeiBold'; font-size:8px;">Relationship</text>
	<text transform="matrix(1 0 0 1 -1449.7 -1008.446)" class="st19" style="font-family:'MicrosoftJhengHeiBold'; font-size:8px;">Human</text>
	<text transform="matrix(1 0 0 1 -1496.4487 -957.2498)"><tspan x="0" y="0" class="st20" style="font-family:'MicrosoftJhengHeiBold'; font-size:8px;">Strategy</tspan><tspan x="7.9" y="10" class="st20" style="font-family:'MicrosoftJhengHeiBold'; font-size:8px;">Plan</tspan></text>
	
		<text transform="matrix(1 0 0 1 -1489.7104 -932.9998)" class="st19" style="font-family:'MicrosoftJhengHeiBold'; font-size:8px;">Time</text>
	<text transform="matrix(1 0 0 1 -1403.1101 -957.2498)"><tspan x="0" y="0" class="st20" style="font-family:'MicrosoftJhengHeiBold'; font-size:8px;">Action</tspan><tspan x="4.3" y="10" class="st20" style="font-family:'MicrosoftJhengHeiBold'; font-size:8px;">Plan</tspan></text>
	
		<text transform="matrix(1 0 0 1 -1401.9734 -932.9998)" class="st19" style="font-family:'MicrosoftJhengHeiBold'; font-size:8px;">Space</text>
</g>
</svg>
